<mxfile host="app.diagrams.net" agent="Mozilla/5.0 (Windows NT 10.0; Win64; x64) AppleWebKit/537.36 (KHTML, like Gecko) Chrome/134.0.0.0 Safari/537.36" version="26.1.3">
  <diagram name="第 1 页" id="NOm8X4TQWZ7Y-YqbQvwr">
    <mxGraphModel dx="1050" dy="522" grid="1" gridSize="10" guides="1" tooltips="1" connect="1" arrows="1" fold="1" page="1" pageScale="1" pageWidth="827" pageHeight="1169" math="0" shadow="0">
      <root>
        <mxCell id="0" />
        <mxCell id="1" parent="0" />
        <mxCell id="e5YtZzp-TlvkGPMqbxHH-1" value="&lt;section id=&quot;markdown-section--30&quot; class=&quot;markdown-section&quot; data-markdown-raw=&quot;## 索引加载过程&quot; data-section-index=&quot;30&quot; style=&quot;border-radius: 4px; margin: 22px 0px 6px; padding: 4px; position: relative; scroll-margin-bottom: 40px; scroll-margin-top: 40px; color: rgb(20, 20, 20); font-family: &amp;quot;Segoe WPC&amp;quot;, &amp;quot;Segoe UI&amp;quot;, &amp;quot;Microsoft YaHei&amp;quot;, sans-serif; font-size: 13px; font-style: normal; font-variant-ligatures: normal; font-variant-caps: normal; font-weight: 400; letter-spacing: normal; orphans: 2; text-align: start; text-indent: 0px; text-transform: none; widows: 2; word-spacing: 0px; -webkit-text-stroke-width: 0px; white-space: normal; background-color: rgb(235, 235, 235); text-decoration-thickness: initial; text-decoration-style: initial; text-decoration-color: initial;&quot;&gt;&lt;h2 style=&quot;font-weight: 600 !important; margin-bottom: 0px; margin-top: 0px;&quot;&gt;&lt;span&gt;索引加载过程&lt;/span&gt;&lt;/h2&gt;&lt;/section&gt;&lt;section id=&quot;markdown-section--32&quot; class=&quot;markdown-section&quot; data-markdown-raw=&quot;当查询需要访问索引时：&quot; data-section-index=&quot;32&quot; style=&quot;border-radius: 4px; margin: 6px 0px; padding: 4px; position: relative; scroll-margin-bottom: 40px; scroll-margin-top: 40px; color: rgb(20, 20, 20); font-family: &amp;quot;Segoe WPC&amp;quot;, &amp;quot;Segoe UI&amp;quot;, &amp;quot;Microsoft YaHei&amp;quot;, sans-serif; font-size: 13px; font-style: normal; font-variant-ligatures: normal; font-variant-caps: normal; font-weight: 400; letter-spacing: normal; orphans: 2; text-align: start; text-indent: 0px; text-transform: none; widows: 2; word-spacing: 0px; -webkit-text-stroke-width: 0px; white-space: normal; background-color: rgb(235, 235, 235); text-decoration-thickness: initial; text-decoration-style: initial; text-decoration-color: initial;&quot;&gt;&lt;div class=&quot;markdown-section-toolbar&quot; style=&quot;animation: auto ease 0s 1 normal none running none !important;&quot;&gt;&lt;div style=&quot;animation: auto ease 0s 1 normal none running none !important; height: 0px; width: 810px;&quot;&gt;&lt;div class=&quot;markdown-section-toolbar-internal&quot; style=&quot;border-radius: 4px; display: flex; gap: 4px; opacity: 0; position: absolute; right: 8px; top: 0px; transform: translateY(-55%); z-index: 303; animation: auto ease 0s 1 normal none running none !important;&quot;&gt;&lt;div class=&quot;markdown-section-toolbar-item light&quot; style=&quot;align-items: center; border-radius: 3px; color: var(--vscode-foreground); cursor: pointer; display: flex; height: 20px; justify-content: center; opacity: 0.3; position: relative; width: 20px; animation: auto ease 0s 1 normal none running none !important;&quot;&gt;&lt;span class=&quot;codicon codicon-reply&quot; style=&quot;animation: auto ease 0s 1 normal none running none !important; display: inline-block; font: 14px / 1 codicon; text-align: center; text-decoration: none; text-rendering: auto; text-transform: none; -webkit-font-smoothing: antialiased; user-select: none;&quot;&gt;&lt;/span&gt;&lt;/div&gt;&lt;div class=&quot;markdown-section-toolbar-item markdown-section-toolbar-copy light&quot; style=&quot;align-items: center; border-radius: 3px; color: var(--vscode-foreground); cursor: pointer; display: flex; height: 20px; justify-content: center; opacity: 0.3; position: relative; width: 20px; animation: auto ease 0s 1 normal none running none !important; pointer-events: auto;&quot;&gt;&lt;span class=&quot;codicon codicon-copy&quot; style=&quot;animation: auto ease 0s 1 normal none running none !important; display: inline-block; font: 14px / 1 codicon; text-align: center; text-decoration: none; text-rendering: auto; text-transform: none; -webkit-font-smoothing: antialiased; user-select: none;&quot;&gt;&lt;/span&gt;&lt;/div&gt;&lt;/div&gt;&lt;/div&gt;&lt;/div&gt;&lt;span style=&quot;margin-top: 0px;&quot;&gt;当查询需要访问&lt;/span&gt;&lt;span style=&quot;margin-bottom: 0px;&quot;&gt;索引时：&lt;/span&gt;&lt;/section&gt;&lt;section id=&quot;markdown-section--34&quot; class=&quot;markdown-section&quot; data-markdown-raw=&quot;1. **定位表空间**：&quot; data-section-index=&quot;34&quot; style=&quot;border-radius: 4px; margin: 6px 0px; padding: 4px; position: relative; scroll-margin-bottom: 40px; scroll-margin-top: 40px; color: rgb(20, 20, 20); font-family: &amp;quot;Segoe WPC&amp;quot;, &amp;quot;Segoe UI&amp;quot;, &amp;quot;Microsoft YaHei&amp;quot;, sans-serif; font-size: 13px; font-style: normal; font-variant-ligatures: normal; font-variant-caps: normal; font-weight: 400; letter-spacing: normal; orphans: 2; text-align: start; text-indent: 0px; text-transform: none; widows: 2; word-spacing: 0px; -webkit-text-stroke-width: 0px; white-space: normal; background-color: rgb(235, 235, 235); text-decoration-thickness: initial; text-decoration-style: initial; text-decoration-color: initial;&quot;&gt;&lt;div class=&quot;markdown-section-toolbar&quot; style=&quot;animation: auto ease 0s 1 normal none running none !important;&quot;&gt;&lt;div style=&quot;animation: auto ease 0s 1 normal none running none !important; height: 0px; width: 810px;&quot;&gt;&lt;div class=&quot;markdown-section-toolbar-internal&quot; style=&quot;border-radius: 4px; display: flex; gap: 4px; opacity: 0; position: absolute; right: 8px; top: 0px; transform: translateY(-55%); z-index: 303; animation: auto ease 0s 1 normal none running none !important;&quot;&gt;&lt;div class=&quot;markdown-section-toolbar-item light&quot; style=&quot;align-items: center; border-radius: 3px; color: var(--vscode-foreground); cursor: pointer; display: flex; height: 20px; justify-content: center; opacity: 0.3; position: relative; width: 20px; animation: auto ease 0s 1 normal none running none !important;&quot;&gt;&lt;span class=&quot;codicon codicon-reply&quot; style=&quot;animation: auto ease 0s 1 normal none running none !important; display: inline-block; font: 14px / 1 codicon; text-align: center; text-decoration: none; text-rendering: auto; text-transform: none; -webkit-font-smoothing: antialiased; user-select: none;&quot;&gt;&lt;/span&gt;&lt;/div&gt;&lt;div class=&quot;markdown-section-toolbar-item markdown-section-toolbar-copy light&quot; style=&quot;align-items: center; border-radius: 3px; color: var(--vscode-foreground); cursor: pointer; display: flex; height: 20px; justify-content: center; opacity: 0.3; position: relative; width: 20px; animation: auto ease 0s 1 normal none running none !important; pointer-events: auto;&quot;&gt;&lt;span class=&quot;codicon codicon-copy&quot; style=&quot;animation: auto ease 0s 1 normal none running none !important; display: inline-block; font: 14px / 1 codicon; text-align: center; text-decoration: none; text-rendering: auto; text-transform: none; -webkit-font-smoothing: antialiased; user-select: none;&quot;&gt;&lt;/span&gt;&lt;/div&gt;&lt;/div&gt;&lt;/div&gt;&lt;/div&gt;&lt;li value=&quot;1&quot; style=&quot;list-style-type: decimal; padding-left: 0px; padding-top: 2px; padding-bottom: 2px; margin-top: 0px; margin-bottom: 0px;&quot;&gt;&lt;span class=&quot;markdown-bold-text&quot; style=&quot;font-weight: 600;&quot;&gt;&lt;span&gt;定位表&lt;/span&gt;&lt;span&gt;空间&lt;/span&gt;&lt;/span&gt;&lt;span&gt;：&lt;/span&gt;&lt;/li&gt;&lt;/section&gt;&lt;section id=&quot;markdown-section--35&quot; class=&quot;markdown-section&quot; data-markdown-raw=&quot;- 系统首先确定索引所在的表空间&quot; data-section-index=&quot;35&quot; style=&quot;border-radius: 4px; margin: 6px 0px; padding: 4px; position: relative; scroll-margin-bottom: 40px; scroll-margin-top: 40px; color: rgb(20, 20, 20); font-family: &amp;quot;Segoe WPC&amp;quot;, &amp;quot;Segoe UI&amp;quot;, &amp;quot;Microsoft YaHei&amp;quot;, sans-serif; font-size: 13px; font-style: normal; font-variant-ligatures: normal; font-variant-caps: normal; font-weight: 400; letter-spacing: normal; orphans: 2; text-align: start; text-indent: 0px; text-transform: none; widows: 2; word-spacing: 0px; -webkit-text-stroke-width: 0px; white-space: normal; background-color: rgb(235, 235, 235); text-decoration-thickness: initial; text-decoration-style: initial; text-decoration-color: initial;&quot;&gt;&lt;div class=&quot;markdown-section-toolbar&quot; style=&quot;animation: auto ease 0s 1 normal none running none !important;&quot;&gt;&lt;div style=&quot;animation: auto ease 0s 1 normal none running none !important; height: 0px; width: 810px;&quot;&gt;&lt;div class=&quot;markdown-section-toolbar-internal&quot; style=&quot;border-radius: 4px; display: flex; gap: 4px; opacity: 0; position: absolute; right: 8px; top: 0px; transform: translateY(-55%); z-index: 303; animation: auto ease 0s 1 normal none running none !important;&quot;&gt;&lt;div class=&quot;markdown-section-toolbar-item light&quot; style=&quot;align-items: center; border-radius: 3px; color: var(--vscode-foreground); cursor: pointer; display: flex; height: 20px; justify-content: center; opacity: 0.3; position: relative; width: 20px; animation: auto ease 0s 1 normal none running none !important;&quot;&gt;&lt;span class=&quot;codicon codicon-reply&quot; style=&quot;animation: auto ease 0s 1 normal none running none !important; display: inline-block; font: 14px / 1 codicon; text-align: center; text-decoration: none; text-rendering: auto; text-transform: none; -webkit-font-smoothing: antialiased; user-select: none;&quot;&gt;&lt;/span&gt;&lt;/div&gt;&lt;div class=&quot;markdown-section-toolbar-item markdown-section-toolbar-copy light&quot; style=&quot;align-items: center; border-radius: 3px; color: var(--vscode-foreground); cursor: pointer; display: flex; height: 20px; justify-content: center; opacity: 0.3; position: relative; width: 20px; animation: auto ease 0s 1 normal none running none !important; pointer-events: auto;&quot;&gt;&lt;span class=&quot;codicon codicon-copy&quot; style=&quot;animation: auto ease 0s 1 normal none running none !important; display: inline-block; font: 14px / 1 codicon; text-align: center; text-decoration: none; text-rendering: auto; text-transform: none; -webkit-font-smoothing: antialiased; user-select: none;&quot;&gt;&lt;/span&gt;&lt;/div&gt;&lt;/div&gt;&lt;/div&gt;&lt;/div&gt;&lt;li style=&quot;padding-left: 24px; padding-top: 2px; padding-bottom: 2px; margin-top: 0px; margin-bottom: 0px;&quot;&gt;&lt;span&gt;系统&lt;/span&gt;&lt;span&gt;首先确定索引所在的表空间&lt;/span&gt;&lt;/li&gt;&lt;/section&gt;&lt;section id=&quot;markdown-section--36&quot; class=&quot;markdown-section&quot; data-markdown-raw=&quot;- 对于独立表空间，就是表对应的.ibd文件&quot; data-section-index=&quot;36&quot; style=&quot;border-radius: 4px; margin: 6px 0px; padding: 4px; position: relative; scroll-margin-bottom: 40px; scroll-margin-top: 40px; color: rgb(20, 20, 20); font-family: &amp;quot;Segoe WPC&amp;quot;, &amp;quot;Segoe UI&amp;quot;, &amp;quot;Microsoft YaHei&amp;quot;, sans-serif; font-size: 13px; font-style: normal; font-variant-ligatures: normal; font-variant-caps: normal; font-weight: 400; letter-spacing: normal; orphans: 2; text-align: start; text-indent: 0px; text-transform: none; widows: 2; word-spacing: 0px; -webkit-text-stroke-width: 0px; white-space: normal; background-color: rgb(235, 235, 235); text-decoration-thickness: initial; text-decoration-style: initial; text-decoration-color: initial;&quot;&gt;&lt;div class=&quot;markdown-section-toolbar&quot; style=&quot;animation: auto ease 0s 1 normal none running none !important;&quot;&gt;&lt;div style=&quot;animation: auto ease 0s 1 normal none running none !important; height: 0px; width: 810px;&quot;&gt;&lt;div class=&quot;markdown-section-toolbar-internal&quot; style=&quot;border-radius: 4px; display: flex; gap: 4px; opacity: 0; position: absolute; right: 8px; top: 0px; transform: translateY(-55%); z-index: 303; animation: auto ease 0s 1 normal none running none !important;&quot;&gt;&lt;div class=&quot;markdown-section-toolbar-item light&quot; style=&quot;align-items: center; border-radius: 3px; color: var(--vscode-foreground); cursor: pointer; display: flex; height: 20px; justify-content: center; opacity: 0.3; position: relative; width: 20px; animation: auto ease 0s 1 normal none running none !important;&quot;&gt;&lt;span class=&quot;codicon codicon-reply&quot; style=&quot;animation: auto ease 0s 1 normal none running none !important; display: inline-block; font: 14px / 1 codicon; text-align: center; text-decoration: none; text-rendering: auto; text-transform: none; -webkit-font-smoothing: antialiased; user-select: none;&quot;&gt;&lt;/span&gt;&lt;/div&gt;&lt;div class=&quot;markdown-section-toolbar-item markdown-section-toolbar-copy light&quot; style=&quot;align-items: center; border-radius: 3px; color: var(--vscode-foreground); cursor: pointer; display: flex; height: 20px; justify-content: center; opacity: 0.3; position: relative; width: 20px; animation: auto ease 0s 1 normal none running none !important; pointer-events: auto;&quot;&gt;&lt;span class=&quot;codicon codicon-copy&quot; style=&quot;animation: auto ease 0s 1 normal none running none !important; display: inline-block; font: 14px / 1 codicon; text-align: center; text-decoration: none; text-rendering: auto; text-transform: none; -webkit-font-smoothing: antialiased; user-select: none;&quot;&gt;&lt;/span&gt;&lt;/div&gt;&lt;/div&gt;&lt;/div&gt;&lt;/div&gt;&lt;li style=&quot;padding-left: 24px; padding-top: 2px; padding-bottom: 2px; margin-top: 0px; margin-bottom: 0px;&quot;&gt;&lt;span&gt;对于独立表空间，就是表&lt;/span&gt;&lt;span&gt;对应的.ibd文件&lt;/span&gt;&lt;/li&gt;&lt;/section&gt;&lt;section id=&quot;markdown-section--38&quot; class=&quot;markdown-section&quot; data-markdown-raw=&quot;2. **定位索引段**：&quot; data-section-index=&quot;38&quot; style=&quot;border-radius: 4px; margin: 6px 0px; padding: 4px; position: relative; scroll-margin-bottom: 40px; scroll-margin-top: 40px; color: rgb(20, 20, 20); font-family: &amp;quot;Segoe WPC&amp;quot;, &amp;quot;Segoe UI&amp;quot;, &amp;quot;Microsoft YaHei&amp;quot;, sans-serif; font-size: 13px; font-style: normal; font-variant-ligatures: normal; font-variant-caps: normal; font-weight: 400; letter-spacing: normal; orphans: 2; text-align: start; text-indent: 0px; text-transform: none; widows: 2; word-spacing: 0px; -webkit-text-stroke-width: 0px; white-space: normal; background-color: rgb(235, 235, 235); text-decoration-thickness: initial; text-decoration-style: initial; text-decoration-color: initial;&quot;&gt;&lt;div class=&quot;markdown-section-toolbar&quot; style=&quot;animation: auto ease 0s 1 normal none running none !important;&quot;&gt;&lt;div style=&quot;animation: auto ease 0s 1 normal none running none !important; height: 0px; width: 810px;&quot;&gt;&lt;div class=&quot;markdown-section-toolbar-internal&quot; style=&quot;border-radius: 4px; display: flex; gap: 4px; opacity: 0; position: absolute; right: 8px; top: 0px; transform: translateY(-55%); z-index: 303; animation: auto ease 0s 1 normal none running none !important;&quot;&gt;&lt;div class=&quot;markdown-section-toolbar-item light&quot; style=&quot;align-items: center; border-radius: 3px; color: var(--vscode-foreground); cursor: pointer; display: flex; height: 20px; justify-content: center; opacity: 0.3; position: relative; width: 20px; animation: auto ease 0s 1 normal none running none !important;&quot;&gt;&lt;span class=&quot;codicon codicon-reply&quot; style=&quot;animation: auto ease 0s 1 normal none running none !important; display: inline-block; font: 14px / 1 codicon; text-align: center; text-decoration: none; text-rendering: auto; text-transform: none; -webkit-font-smoothing: antialiased; user-select: none;&quot;&gt;&lt;/span&gt;&lt;/div&gt;&lt;div class=&quot;markdown-section-toolbar-item markdown-section-toolbar-copy light&quot; style=&quot;align-items: center; border-radius: 3px; color: var(--vscode-foreground); cursor: pointer; display: flex; height: 20px; justify-content: center; opacity: 0.3; position: relative; width: 20px; animation: auto ease 0s 1 normal none running none !important; pointer-events: auto;&quot;&gt;&lt;span class=&quot;codicon codicon-copy&quot; style=&quot;animation: auto ease 0s 1 normal none running none !important; display: inline-block; font: 14px / 1 codicon; text-align: center; text-decoration: none; text-rendering: auto; text-transform: none; -webkit-font-smoothing: antialiased; user-select: none;&quot;&gt;&lt;/span&gt;&lt;/div&gt;&lt;/div&gt;&lt;/div&gt;&lt;/div&gt;&lt;li value=&quot;2&quot; style=&quot;list-style-type: decimal; padding-left: 0px; padding-top: 2px; padding-bottom: 2px; margin-top: 0px; margin-bottom: 0px;&quot;&gt;&lt;span class=&quot;markdown-bold-text&quot; style=&quot;font-weight: 600;&quot;&gt;&lt;span&gt;定&lt;/span&gt;&lt;span&gt;位索引段&lt;/span&gt;&lt;/span&gt;&lt;span&gt;：&lt;/span&gt;&lt;/li&gt;&lt;/section&gt;&lt;section id=&quot;markdown-section--39&quot; class=&quot;markdown-section&quot; data-markdown-raw=&quot;- 系统从数据字典中获取索引的元数据信息&quot; data-section-index=&quot;39&quot; style=&quot;border-radius: 4px; margin: 6px 0px; padding: 4px; position: relative; scroll-margin-bottom: 40px; scroll-margin-top: 40px; color: rgb(20, 20, 20); font-family: &amp;quot;Segoe WPC&amp;quot;, &amp;quot;Segoe UI&amp;quot;, &amp;quot;Microsoft YaHei&amp;quot;, sans-serif; font-size: 13px; font-style: normal; font-variant-ligatures: normal; font-variant-caps: normal; font-weight: 400; letter-spacing: normal; orphans: 2; text-align: start; text-indent: 0px; text-transform: none; widows: 2; word-spacing: 0px; -webkit-text-stroke-width: 0px; white-space: normal; background-color: rgb(235, 235, 235); text-decoration-thickness: initial; text-decoration-style: initial; text-decoration-color: initial;&quot;&gt;&lt;div class=&quot;markdown-section-toolbar&quot; style=&quot;animation: auto ease 0s 1 normal none running none !important;&quot;&gt;&lt;div style=&quot;animation: auto ease 0s 1 normal none running none !important; height: 0px; width: 810px;&quot;&gt;&lt;div class=&quot;markdown-section-toolbar-internal&quot; style=&quot;border-radius: 4px; display: flex; gap: 4px; opacity: 0; position: absolute; right: 8px; top: 0px; transform: translateY(-55%); z-index: 303; animation: auto ease 0s 1 normal none running none !important;&quot;&gt;&lt;div class=&quot;markdown-section-toolbar-item light&quot; style=&quot;align-items: center; border-radius: 3px; color: var(--vscode-foreground); cursor: pointer; display: flex; height: 20px; justify-content: center; opacity: 0.3; position: relative; width: 20px; animation: auto ease 0s 1 normal none running none !important;&quot;&gt;&lt;span class=&quot;codicon codicon-reply&quot; style=&quot;animation: auto ease 0s 1 normal none running none !important; display: inline-block; font: 14px / 1 codicon; text-align: center; text-decoration: none; text-rendering: auto; text-transform: none; -webkit-font-smoothing: antialiased; user-select: none;&quot;&gt;&lt;/span&gt;&lt;/div&gt;&lt;div class=&quot;markdown-section-toolbar-item markdown-section-toolbar-copy light&quot; style=&quot;align-items: center; border-radius: 3px; color: var(--vscode-foreground); cursor: pointer; display: flex; height: 20px; justify-content: center; opacity: 0.3; position: relative; width: 20px; animation: auto ease 0s 1 normal none running none !important; pointer-events: auto;&quot;&gt;&lt;span class=&quot;codicon codicon-copy&quot; style=&quot;animation: auto ease 0s 1 normal none running none !important; display: inline-block; font: 14px / 1 codicon; text-align: center; text-decoration: none; text-rendering: auto; text-transform: none; -webkit-font-smoothing: antialiased; user-select: none;&quot;&gt;&lt;/span&gt;&lt;/div&gt;&lt;/div&gt;&lt;/div&gt;&lt;/div&gt;&lt;li style=&quot;padding-left: 24px; padding-top: 2px; padding-bottom: 2px; margin-top: 0px; margin-bottom: 0px;&quot;&gt;&lt;span&gt;系统从&lt;/span&gt;&lt;span&gt;数据字典中获取索引的&lt;/span&gt;&lt;span&gt;元数据信息&lt;/span&gt;&lt;/li&gt;&lt;/section&gt;&lt;section id=&quot;markdown-section--40&quot; class=&quot;markdown-section&quot; data-markdown-raw=&quot;- 找到索引段在表空间中的位置&quot; data-section-index=&quot;40&quot; style=&quot;border-radius: 4px; margin: 6px 0px; padding: 4px; position: relative; scroll-margin-bottom: 40px; scroll-margin-top: 40px; color: rgb(20, 20, 20); font-family: &amp;quot;Segoe WPC&amp;quot;, &amp;quot;Segoe UI&amp;quot;, &amp;quot;Microsoft YaHei&amp;quot;, sans-serif; font-size: 13px; font-style: normal; font-variant-ligatures: normal; font-variant-caps: normal; font-weight: 400; letter-spacing: normal; orphans: 2; text-align: start; text-indent: 0px; text-transform: none; widows: 2; word-spacing: 0px; -webkit-text-stroke-width: 0px; white-space: normal; background-color: rgb(235, 235, 235); text-decoration-thickness: initial; text-decoration-style: initial; text-decoration-color: initial;&quot;&gt;&lt;div class=&quot;markdown-section-toolbar&quot; style=&quot;animation: auto ease 0s 1 normal none running none !important;&quot;&gt;&lt;div style=&quot;animation: auto ease 0s 1 normal none running none !important; height: 0px; width: 810px;&quot;&gt;&lt;div class=&quot;markdown-section-toolbar-internal&quot; style=&quot;border-radius: 4px; display: flex; gap: 4px; opacity: 0; position: absolute; right: 8px; top: 0px; transform: translateY(-55%); z-index: 303; animation: auto ease 0s 1 normal none running none !important;&quot;&gt;&lt;div class=&quot;markdown-section-toolbar-item light&quot; style=&quot;align-items: center; border-radius: 3px; color: var(--vscode-foreground); cursor: pointer; display: flex; height: 20px; justify-content: center; opacity: 0.3; position: relative; width: 20px; animation: auto ease 0s 1 normal none running none !important;&quot;&gt;&lt;span class=&quot;codicon codicon-reply&quot; style=&quot;animation: auto ease 0s 1 normal none running none !important; display: inline-block; font: 14px / 1 codicon; text-align: center; text-decoration: none; text-rendering: auto; text-transform: none; -webkit-font-smoothing: antialiased; user-select: none;&quot;&gt;&lt;/span&gt;&lt;/div&gt;&lt;div class=&quot;markdown-section-toolbar-item markdown-section-toolbar-copy light&quot; style=&quot;align-items: center; border-radius: 3px; color: var(--vscode-foreground); cursor: pointer; display: flex; height: 20px; justify-content: center; opacity: 0.3; position: relative; width: 20px; animation: auto ease 0s 1 normal none running none !important; pointer-events: auto;&quot;&gt;&lt;span class=&quot;codicon codicon-copy&quot; style=&quot;animation: auto ease 0s 1 normal none running none !important; display: inline-block; font: 14px / 1 codicon; text-align: center; text-decoration: none; text-rendering: auto; text-transform: none; -webkit-font-smoothing: antialiased; user-select: none;&quot;&gt;&lt;/span&gt;&lt;/div&gt;&lt;/div&gt;&lt;/div&gt;&lt;/div&gt;&lt;li style=&quot;padding-left: 24px; padding-top: 2px; padding-bottom: 2px; margin-top: 0px; margin-bottom: 0px;&quot;&gt;&lt;span&gt;找到索引段&lt;/span&gt;&lt;span&gt;在表空间中的位置&lt;/span&gt;&lt;/li&gt;&lt;/section&gt;&lt;section id=&quot;markdown-section--42&quot; class=&quot;markdown-section&quot; data-markdown-raw=&quot;3. **加载索引页**：&quot; data-section-index=&quot;42&quot; style=&quot;border-radius: 4px; margin: 6px 0px; padding: 4px; position: relative; scroll-margin-bottom: 40px; scroll-margin-top: 40px; color: rgb(20, 20, 20); font-family: &amp;quot;Segoe WPC&amp;quot;, &amp;quot;Segoe UI&amp;quot;, &amp;quot;Microsoft YaHei&amp;quot;, sans-serif; font-size: 13px; font-style: normal; font-variant-ligatures: normal; font-variant-caps: normal; font-weight: 400; letter-spacing: normal; orphans: 2; text-align: start; text-indent: 0px; text-transform: none; widows: 2; word-spacing: 0px; -webkit-text-stroke-width: 0px; white-space: normal; background-color: rgb(235, 235, 235); text-decoration-thickness: initial; text-decoration-style: initial; text-decoration-color: initial;&quot;&gt;&lt;div class=&quot;markdown-section-toolbar&quot; style=&quot;animation: auto ease 0s 1 normal none running none !important;&quot;&gt;&lt;div style=&quot;animation: auto ease 0s 1 normal none running none !important; height: 0px; width: 810px;&quot;&gt;&lt;div class=&quot;markdown-section-toolbar-internal&quot; style=&quot;border-radius: 4px; display: flex; gap: 4px; opacity: 0; position: absolute; right: 8px; top: 0px; transform: translateY(-55%); z-index: 303; animation: auto ease 0s 1 normal none running none !important;&quot;&gt;&lt;div class=&quot;markdown-section-toolbar-item light&quot; style=&quot;align-items: center; border-radius: 3px; color: var(--vscode-foreground); cursor: pointer; display: flex; height: 20px; justify-content: center; opacity: 0.3; position: relative; width: 20px; animation: auto ease 0s 1 normal none running none !important;&quot;&gt;&lt;span class=&quot;codicon codicon-reply&quot; style=&quot;animation: auto ease 0s 1 normal none running none !important; display: inline-block; font: 14px / 1 codicon; text-align: center; text-decoration: none; text-rendering: auto; text-transform: none; -webkit-font-smoothing: antialiased; user-select: none;&quot;&gt;&lt;/span&gt;&lt;/div&gt;&lt;div class=&quot;markdown-section-toolbar-item markdown-section-toolbar-copy light&quot; style=&quot;align-items: center; border-radius: 3px; color: var(--vscode-foreground); cursor: pointer; display: flex; height: 20px; justify-content: center; opacity: 0.3; position: relative; width: 20px; animation: auto ease 0s 1 normal none running none !important; pointer-events: auto;&quot;&gt;&lt;span class=&quot;codicon codicon-copy&quot; style=&quot;animation: auto ease 0s 1 normal none running none !important; display: inline-block; font: 14px / 1 codicon; text-align: center; text-decoration: none; text-rendering: auto; text-transform: none; -webkit-font-smoothing: antialiased; user-select: none;&quot;&gt;&lt;/span&gt;&lt;/div&gt;&lt;/div&gt;&lt;/div&gt;&lt;/div&gt;&lt;li value=&quot;3&quot; style=&quot;list-style-type: decimal; padding-left: 0px; padding-top: 2px; padding-bottom: 2px; margin-top: 0px; margin-bottom: 0px;&quot;&gt;&lt;span class=&quot;markdown-bold-text&quot; style=&quot;font-weight: 600;&quot;&gt;&lt;span&gt;加载索引页&lt;/span&gt;&lt;/span&gt;&lt;span&gt;：&lt;/span&gt;&lt;/li&gt;&lt;/section&gt;&lt;section id=&quot;markdown-section--43&quot; class=&quot;markdown-section&quot; data-markdown-raw=&quot;- 从索引的根页开始加载&quot; data-section-index=&quot;43&quot; style=&quot;border-radius: 4px; margin: 6px 0px; padding: 4px; position: relative; scroll-margin-bottom: 40px; scroll-margin-top: 40px; color: rgb(20, 20, 20); font-family: &amp;quot;Segoe WPC&amp;quot;, &amp;quot;Segoe UI&amp;quot;, &amp;quot;Microsoft YaHei&amp;quot;, sans-serif; font-size: 13px; font-style: normal; font-variant-ligatures: normal; font-variant-caps: normal; font-weight: 400; letter-spacing: normal; orphans: 2; text-align: start; text-indent: 0px; text-transform: none; widows: 2; word-spacing: 0px; -webkit-text-stroke-width: 0px; white-space: normal; background-color: rgb(235, 235, 235); text-decoration-thickness: initial; text-decoration-style: initial; text-decoration-color: initial;&quot;&gt;&lt;div class=&quot;markdown-section-toolbar&quot; style=&quot;animation: auto ease 0s 1 normal none running none !important;&quot;&gt;&lt;div style=&quot;animation: auto ease 0s 1 normal none running none !important; height: 0px; width: 810px;&quot;&gt;&lt;div class=&quot;markdown-section-toolbar-internal&quot; style=&quot;border-radius: 4px; display: flex; gap: 4px; opacity: 0; position: absolute; right: 8px; top: 0px; transform: translateY(-55%); z-index: 303; animation: auto ease 0s 1 normal none running none !important;&quot;&gt;&lt;div class=&quot;markdown-section-toolbar-item light&quot; style=&quot;align-items: center; border-radius: 3px; color: var(--vscode-foreground); cursor: pointer; display: flex; height: 20px; justify-content: center; opacity: 0.3; position: relative; width: 20px; animation: auto ease 0s 1 normal none running none !important;&quot;&gt;&lt;span class=&quot;codicon codicon-reply&quot; style=&quot;animation: auto ease 0s 1 normal none running none !important; display: inline-block; font: 14px / 1 codicon; text-align: center; text-decoration: none; text-rendering: auto; text-transform: none; -webkit-font-smoothing: antialiased; user-select: none;&quot;&gt;&lt;/span&gt;&lt;/div&gt;&lt;div class=&quot;markdown-section-toolbar-item markdown-section-toolbar-copy light&quot; style=&quot;align-items: center; border-radius: 3px; color: var(--vscode-foreground); cursor: pointer; display: flex; height: 20px; justify-content: center; opacity: 0.3; position: relative; width: 20px; animation: auto ease 0s 1 normal none running none !important; pointer-events: auto;&quot;&gt;&lt;span class=&quot;codicon codicon-copy&quot; style=&quot;animation: auto ease 0s 1 normal none running none !important; display: inline-block; font: 14px / 1 codicon; text-align: center; text-decoration: none; text-rendering: auto; text-transform: none; -webkit-font-smoothing: antialiased; user-select: none;&quot;&gt;&lt;/span&gt;&lt;/div&gt;&lt;/div&gt;&lt;/div&gt;&lt;/div&gt;&lt;li style=&quot;padding-left: 24px; padding-top: 2px; padding-bottom: 2px; margin-top: 0px; margin-bottom: 0px;&quot;&gt;&lt;span&gt;从索引的根页开始加&lt;/span&gt;&lt;span&gt;载&lt;/span&gt;&lt;/li&gt;&lt;/section&gt;&lt;section id=&quot;markdown-section--44&quot; class=&quot;markdown-section&quot; data-markdown-raw=&quot;- 根据B+树的结构，逐层向下加载需要的页面&quot; data-section-index=&quot;44&quot; style=&quot;border-radius: 4px; margin: 6px 0px; padding: 4px; position: relative; scroll-margin-bottom: 40px; scroll-margin-top: 40px; color: rgb(20, 20, 20); font-family: &amp;quot;Segoe WPC&amp;quot;, &amp;quot;Segoe UI&amp;quot;, &amp;quot;Microsoft YaHei&amp;quot;, sans-serif; font-size: 13px; font-style: normal; font-variant-ligatures: normal; font-variant-caps: normal; font-weight: 400; letter-spacing: normal; orphans: 2; text-align: start; text-indent: 0px; text-transform: none; widows: 2; word-spacing: 0px; -webkit-text-stroke-width: 0px; white-space: normal; background-color: rgb(235, 235, 235); text-decoration-thickness: initial; text-decoration-style: initial; text-decoration-color: initial;&quot;&gt;&lt;div class=&quot;markdown-section-toolbar&quot; style=&quot;animation: auto ease 0s 1 normal none running none !important;&quot;&gt;&lt;div style=&quot;animation: auto ease 0s 1 normal none running none !important; height: 0px; width: 810px;&quot;&gt;&lt;div class=&quot;markdown-section-toolbar-internal&quot; style=&quot;border-radius: 4px; display: flex; gap: 4px; opacity: 0; position: absolute; right: 8px; top: 0px; transform: translateY(-55%); z-index: 303; animation: auto ease 0s 1 normal none running none !important;&quot;&gt;&lt;div class=&quot;markdown-section-toolbar-item light&quot; style=&quot;align-items: center; border-radius: 3px; color: var(--vscode-foreground); cursor: pointer; display: flex; height: 20px; justify-content: center; opacity: 0.3; position: relative; width: 20px; animation: auto ease 0s 1 normal none running none !important;&quot;&gt;&lt;span class=&quot;codicon codicon-reply&quot; style=&quot;animation: auto ease 0s 1 normal none running none !important; display: inline-block; font: 14px / 1 codicon; text-align: center; text-decoration: none; text-rendering: auto; text-transform: none; -webkit-font-smoothing: antialiased; user-select: none;&quot;&gt;&lt;/span&gt;&lt;/div&gt;&lt;div class=&quot;markdown-section-toolbar-item markdown-section-toolbar-copy light&quot; style=&quot;align-items: center; border-radius: 3px; color: var(--vscode-foreground); cursor: pointer; display: flex; height: 20px; justify-content: center; opacity: 0.3; position: relative; width: 20px; animation: auto ease 0s 1 normal none running none !important; pointer-events: auto;&quot;&gt;&lt;span class=&quot;codicon codicon-copy&quot; style=&quot;animation: auto ease 0s 1 normal none running none !important; display: inline-block; font: 14px / 1 codicon; text-align: center; text-decoration: none; text-rendering: auto; text-transform: none; -webkit-font-smoothing: antialiased; user-select: none;&quot;&gt;&lt;/span&gt;&lt;/div&gt;&lt;/div&gt;&lt;/div&gt;&lt;/div&gt;&lt;li style=&quot;padding-left: 24px; padding-top: 2px; padding-bottom: 2px; margin-top: 0px; margin-bottom: 0px;&quot;&gt;&lt;span&gt;根据B+树的&lt;/span&gt;&lt;span&gt;结构，逐层向下加载需&lt;/span&gt;&lt;span&gt;要的页面&lt;/span&gt;&lt;/li&gt;&lt;/section&gt;&lt;section id=&quot;markdown-section--45&quot; class=&quot;markdown-section&quot; data-markdown-raw=&quot;- 每个页面都从表空间的特定位置读取&quot; data-section-index=&quot;45&quot; style=&quot;border-radius: 4px; margin: 6px 0px; padding: 4px; position: relative; scroll-margin-bottom: 40px; scroll-margin-top: 40px; color: rgb(20, 20, 20); font-family: &amp;quot;Segoe WPC&amp;quot;, &amp;quot;Segoe UI&amp;quot;, &amp;quot;Microsoft YaHei&amp;quot;, sans-serif; font-size: 13px; font-style: normal; font-variant-ligatures: normal; font-variant-caps: normal; font-weight: 400; letter-spacing: normal; orphans: 2; text-align: start; text-indent: 0px; text-transform: none; widows: 2; word-spacing: 0px; -webkit-text-stroke-width: 0px; white-space: normal; background-color: rgb(235, 235, 235); text-decoration-thickness: initial; text-decoration-style: initial; text-decoration-color: initial;&quot;&gt;&lt;div class=&quot;markdown-section-toolbar&quot; style=&quot;animation: auto ease 0s 1 normal none running none !important;&quot;&gt;&lt;div style=&quot;animation: auto ease 0s 1 normal none running none !important; height: 0px; width: 810px;&quot;&gt;&lt;div class=&quot;markdown-section-toolbar-internal&quot; style=&quot;border-radius: 4px; display: flex; gap: 4px; opacity: 0; position: absolute; right: 8px; top: 0px; transform: translateY(-55%); z-index: 303; animation: auto ease 0s 1 normal none running none !important;&quot;&gt;&lt;div class=&quot;markdown-section-toolbar-item light&quot; style=&quot;align-items: center; border-radius: 3px; color: var(--vscode-foreground); cursor: pointer; display: flex; height: 20px; justify-content: center; opacity: 0.3; position: relative; width: 20px; animation: auto ease 0s 1 normal none running none !important;&quot;&gt;&lt;span class=&quot;codicon codicon-reply&quot; style=&quot;animation: auto ease 0s 1 normal none running none !important; display: inline-block; font: 14px / 1 codicon; text-align: center; text-decoration: none; text-rendering: auto; text-transform: none; -webkit-font-smoothing: antialiased; user-select: none;&quot;&gt;&lt;/span&gt;&lt;/div&gt;&lt;div class=&quot;markdown-section-toolbar-item markdown-section-toolbar-copy light&quot; style=&quot;align-items: center; border-radius: 3px; color: var(--vscode-foreground); cursor: pointer; display: flex; height: 20px; justify-content: center; opacity: 0.3; position: relative; width: 20px; animation: auto ease 0s 1 normal none running none !important; pointer-events: auto;&quot;&gt;&lt;span class=&quot;codicon codicon-copy&quot; style=&quot;animation: auto ease 0s 1 normal none running none !important; display: inline-block; font: 14px / 1 codicon; text-align: center; text-decoration: none; text-rendering: auto; text-transform: none; -webkit-font-smoothing: antialiased; user-select: none;&quot;&gt;&lt;/span&gt;&lt;/div&gt;&lt;/div&gt;&lt;/div&gt;&lt;/div&gt;&lt;li style=&quot;padding-left: 24px; padding-top: 2px; padding-bottom: 2px; margin-top: 0px; margin-bottom: 0px;&quot;&gt;&lt;span&gt;每个页面都从&lt;/span&gt;&lt;span&gt;表空间的特定位置读取&lt;/span&gt;&lt;/li&gt;&lt;/section&gt;&lt;section id=&quot;markdown-section--47&quot; class=&quot;markdown-section&quot; data-markdown-raw=&quot;4. **缓存机制**：&quot; data-section-index=&quot;47&quot; style=&quot;border-radius: 4px; margin: 6px 0px; padding: 4px; position: relative; scroll-margin-bottom: 40px; scroll-margin-top: 40px; color: rgb(20, 20, 20); font-family: &amp;quot;Segoe WPC&amp;quot;, &amp;quot;Segoe UI&amp;quot;, &amp;quot;Microsoft YaHei&amp;quot;, sans-serif; font-size: 13px; font-style: normal; font-variant-ligatures: normal; font-variant-caps: normal; font-weight: 400; letter-spacing: normal; orphans: 2; text-align: start; text-indent: 0px; text-transform: none; widows: 2; word-spacing: 0px; -webkit-text-stroke-width: 0px; white-space: normal; background-color: rgb(235, 235, 235); text-decoration-thickness: initial; text-decoration-style: initial; text-decoration-color: initial;&quot;&gt;&lt;div class=&quot;markdown-section-toolbar&quot; style=&quot;animation: auto ease 0s 1 normal none running none !important;&quot;&gt;&lt;div style=&quot;animation: auto ease 0s 1 normal none running none !important; height: 0px; width: 810px;&quot;&gt;&lt;div class=&quot;markdown-section-toolbar-internal&quot; style=&quot;border-radius: 4px; display: flex; gap: 4px; opacity: 0; position: absolute; right: 8px; top: 0px; transform: translateY(-55%); z-index: 303; animation: auto ease 0s 1 normal none running none !important;&quot;&gt;&lt;div class=&quot;markdown-section-toolbar-item light&quot; style=&quot;align-items: center; border-radius: 3px; color: var(--vscode-foreground); cursor: pointer; display: flex; height: 20px; justify-content: center; opacity: 0.3; position: relative; width: 20px; animation: auto ease 0s 1 normal none running none !important;&quot;&gt;&lt;span class=&quot;codicon codicon-reply&quot; style=&quot;animation: auto ease 0s 1 normal none running none !important; display: inline-block; font: 14px / 1 codicon; text-align: center; text-decoration: none; text-rendering: auto; text-transform: none; -webkit-font-smoothing: antialiased; user-select: none;&quot;&gt;&lt;/span&gt;&lt;/div&gt;&lt;div class=&quot;markdown-section-toolbar-item markdown-section-toolbar-copy light&quot; style=&quot;align-items: center; border-radius: 3px; color: var(--vscode-foreground); cursor: pointer; display: flex; height: 20px; justify-content: center; opacity: 0.3; position: relative; width: 20px; animation: auto ease 0s 1 normal none running none !important; pointer-events: auto;&quot;&gt;&lt;span class=&quot;codicon codicon-copy&quot; style=&quot;animation: auto ease 0s 1 normal none running none !important; display: inline-block; font: 14px / 1 codicon; text-align: center; text-decoration: none; text-rendering: auto; text-transform: none; -webkit-font-smoothing: antialiased; user-select: none;&quot;&gt;&lt;/span&gt;&lt;/div&gt;&lt;/div&gt;&lt;/div&gt;&lt;/div&gt;&lt;li value=&quot;4&quot; style=&quot;list-style-type: decimal; padding-left: 0px; padding-top: 2px; padding-bottom: 2px; margin-top: 0px; margin-bottom: 0px;&quot;&gt;&lt;span class=&quot;markdown-bold-text&quot; style=&quot;font-weight: 600;&quot;&gt;&lt;span&gt;缓存机制&lt;/span&gt;&lt;/span&gt;&lt;span&gt;：&lt;/span&gt;&lt;/li&gt;&lt;/section&gt;&lt;section id=&quot;markdown-section--48&quot; class=&quot;markdown-section&quot; data-markdown-raw=&quot;- 读取的页面会被加载到Buffer Pool中&quot; data-section-index=&quot;48&quot; style=&quot;border-radius: 4px; margin: 6px 0px; padding: 4px; position: relative; scroll-margin-bottom: 40px; scroll-margin-top: 40px; color: rgb(20, 20, 20); font-family: &amp;quot;Segoe WPC&amp;quot;, &amp;quot;Segoe UI&amp;quot;, &amp;quot;Microsoft YaHei&amp;quot;, sans-serif; font-size: 13px; font-style: normal; font-variant-ligatures: normal; font-variant-caps: normal; font-weight: 400; letter-spacing: normal; orphans: 2; text-align: start; text-indent: 0px; text-transform: none; widows: 2; word-spacing: 0px; -webkit-text-stroke-width: 0px; white-space: normal; background-color: rgb(235, 235, 235); text-decoration-thickness: initial; text-decoration-style: initial; text-decoration-color: initial;&quot;&gt;&lt;div class=&quot;markdown-section-toolbar&quot; style=&quot;animation: auto ease 0s 1 normal none running none !important;&quot;&gt;&lt;div style=&quot;animation: auto ease 0s 1 normal none running none !important; height: 0px; width: 810px;&quot;&gt;&lt;div class=&quot;markdown-section-toolbar-internal&quot; style=&quot;border-radius: 4px; display: flex; gap: 4px; opacity: 0; position: absolute; right: 8px; top: 0px; transform: translateY(-55%); z-index: 303; animation: auto ease 0s 1 normal none running none !important;&quot;&gt;&lt;div class=&quot;markdown-section-toolbar-item light&quot; style=&quot;align-items: center; border-radius: 3px; color: var(--vscode-foreground); cursor: pointer; display: flex; height: 20px; justify-content: center; opacity: 0.3; position: relative; width: 20px; animation: auto ease 0s 1 normal none running none !important;&quot;&gt;&lt;span class=&quot;codicon codicon-reply&quot; style=&quot;animation: auto ease 0s 1 normal none running none !important; display: inline-block; font: 14px / 1 codicon; text-align: center; text-decoration: none; text-rendering: auto; text-transform: none; -webkit-font-smoothing: antialiased; user-select: none;&quot;&gt;&lt;/span&gt;&lt;/div&gt;&lt;div class=&quot;markdown-section-toolbar-item markdown-section-toolbar-copy light&quot; style=&quot;align-items: center; border-radius: 3px; color: var(--vscode-foreground); cursor: pointer; display: flex; height: 20px; justify-content: center; opacity: 0.3; position: relative; width: 20px; animation: auto ease 0s 1 normal none running none !important; pointer-events: auto;&quot;&gt;&lt;span class=&quot;codicon codicon-copy&quot; style=&quot;animation: auto ease 0s 1 normal none running none !important; display: inline-block; font: 14px / 1 codicon; text-align: center; text-decoration: none; text-rendering: auto; text-transform: none; -webkit-font-smoothing: antialiased; user-select: none;&quot;&gt;&lt;/span&gt;&lt;/div&gt;&lt;/div&gt;&lt;/div&gt;&lt;/div&gt;&lt;li style=&quot;padding-left: 24px; padding-top: 2px; padding-bottom: 2px; margin-top: 0px; margin-bottom: 0px;&quot;&gt;&lt;span&gt;读&lt;/span&gt;&lt;span&gt;取的页面会被加载到Buffer Pool中&lt;/span&gt;&lt;/li&gt;&lt;/section&gt;&lt;section id=&quot;markdown-section--49&quot; class=&quot;markdown-section&quot; data-markdown-raw=&quot;- 后续访问同一页面时可直接从内存读取&quot; data-section-index=&quot;49&quot; style=&quot;border-radius: 4px; margin: 6px 0px; padding: 4px; position: relative; scroll-margin-bottom: 40px; scroll-margin-top: 40px; color: rgb(20, 20, 20); font-family: &amp;quot;Segoe WPC&amp;quot;, &amp;quot;Segoe UI&amp;quot;, &amp;quot;Microsoft YaHei&amp;quot;, sans-serif; font-size: 13px; font-style: normal; font-variant-ligatures: normal; font-variant-caps: normal; font-weight: 400; letter-spacing: normal; orphans: 2; text-align: start; text-indent: 0px; text-transform: none; widows: 2; word-spacing: 0px; -webkit-text-stroke-width: 0px; white-space: normal; background-color: rgb(235, 235, 235); text-decoration-thickness: initial; text-decoration-style: initial; text-decoration-color: initial;&quot;&gt;&lt;div class=&quot;markdown-section-toolbar&quot; style=&quot;animation: auto ease 0s 1 normal none running none !important;&quot;&gt;&lt;div style=&quot;animation: auto ease 0s 1 normal none running none !important; height: 0px; width: 810px;&quot;&gt;&lt;div class=&quot;markdown-section-toolbar-internal&quot; style=&quot;border-radius: 4px; display: flex; gap: 4px; opacity: 1; position: absolute; right: 8px; top: 0px; transform: translateY(-55%); z-index: 303; animation: auto ease 0s 1 normal none running none !important;&quot;&gt;&lt;div class=&quot;markdown-section-toolbar-item light&quot; style=&quot;align-items: center; border-radius: 3px; color: var(--vscode-foreground); cursor: pointer; display: flex; height: 20px; justify-content: center; opacity: 0.3; position: relative; width: 20px; animation: auto ease 0s 1 normal none running none !important;&quot;&gt;&lt;span class=&quot;codicon codicon-reply&quot; style=&quot;animation: auto ease 0s 1 normal none running none !important; display: inline-block; font: 14px / 1 codicon; text-align: center; text-decoration: none; text-rendering: auto; text-transform: none; -webkit-font-smoothing: antialiased; user-select: none;&quot;&gt;&lt;/span&gt;&lt;/div&gt;&lt;div class=&quot;markdown-section-toolbar-item markdown-section-toolbar-copy light&quot; style=&quot;align-items: center; border-radius: 3px; color: var(--vscode-foreground); cursor: pointer; display: flex; height: 20px; justify-content: center; opacity: 0.3; position: relative; width: 20px; animation: auto ease 0s 1 normal none running none !important; pointer-events: auto;&quot;&gt;&lt;span class=&quot;codicon codicon-copy&quot; style=&quot;animation: auto ease 0s 1 normal none running none !important; display: inline-block; font: 14px / 1 codicon; text-align: center; text-decoration: none; text-rendering: auto; text-transform: none; -webkit-font-smoothing: antialiased; user-select: none;&quot;&gt;&lt;/span&gt;&lt;/div&gt;&lt;/div&gt;&lt;/div&gt;&lt;/div&gt;&lt;li style=&quot;padding-left: 24px; padding-top: 2px; padding-bottom: 2px; margin-top: 0px; margin-bottom: 0px;&quot;&gt;&lt;span&gt;后续访问同一页面时&lt;/span&gt;&lt;span&gt;可直接从内存读取&lt;/span&gt;&lt;/li&gt;&lt;/section&gt;" style="text;whiteSpace=wrap;html=1;" vertex="1" parent="1">
          <mxGeometry x="20" width="560" height="550" as="geometry" />
        </mxCell>
        <UserObject label="&lt;section id=&quot;markdown-section--51&quot; class=&quot;markdown-section&quot; data-markdown-raw=&quot;## 实际示例&quot; data-section-index=&quot;51&quot; style=&quot;border-radius: 4px; margin: 22px 0px 6px; padding: 4px; position: relative; scroll-margin-bottom: 40px; scroll-margin-top: 40px; color: rgb(20, 20, 20); font-family: &amp;quot;Segoe WPC&amp;quot;, &amp;quot;Segoe UI&amp;quot;, &amp;quot;Microsoft YaHei&amp;quot;, sans-serif; font-size: 13px; font-style: normal; font-variant-ligatures: normal; font-variant-caps: normal; font-weight: 400; letter-spacing: normal; orphans: 2; text-align: start; text-indent: 0px; text-transform: none; widows: 2; word-spacing: 0px; -webkit-text-stroke-width: 0px; white-space: normal; background-color: rgb(235, 235, 235); text-decoration-thickness: initial; text-decoration-style: initial; text-decoration-color: initial;&quot;&gt;&lt;h2 style=&quot;font-weight: 600 !important; margin-bottom: 0px; margin-top: 0px;&quot;&gt;&lt;span&gt;实&lt;/span&gt;&lt;span&gt;际示例&lt;/span&gt;&lt;/h2&gt;&lt;/section&gt;&lt;section id=&quot;markdown-section--53&quot; class=&quot;markdown-section&quot; data-markdown-raw=&quot;假设有一个使用独立表空间的表employees，有一个department字段的二级索引：&quot; data-section-index=&quot;53&quot; style=&quot;border-radius: 4px; margin: 6px 0px; padding: 4px; position: relative; scroll-margin-bottom: 40px; scroll-margin-top: 40px; color: rgb(20, 20, 20); font-family: &amp;quot;Segoe WPC&amp;quot;, &amp;quot;Segoe UI&amp;quot;, &amp;quot;Microsoft YaHei&amp;quot;, sans-serif; font-size: 13px; font-style: normal; font-variant-ligatures: normal; font-variant-caps: normal; font-weight: 400; letter-spacing: normal; orphans: 2; text-align: start; text-indent: 0px; text-transform: none; widows: 2; word-spacing: 0px; -webkit-text-stroke-width: 0px; white-space: normal; background-color: rgb(235, 235, 235); text-decoration-thickness: initial; text-decoration-style: initial; text-decoration-color: initial;&quot;&gt;&lt;div class=&quot;markdown-section-toolbar&quot; style=&quot;animation: auto ease 0s 1 normal none running none !important;&quot;&gt;&lt;div style=&quot;animation: auto ease 0s 1 normal none running none !important; height: 0px; width: 810px;&quot;&gt;&lt;div class=&quot;markdown-section-toolbar-internal&quot; style=&quot;border-radius: 4px; display: flex; gap: 4px; opacity: 0; position: absolute; right: 8px; top: 0px; transform: translateY(-55%); z-index: 303; animation: auto ease 0s 1 normal none running none !important;&quot;&gt;&lt;div class=&quot;markdown-section-toolbar-item light&quot; style=&quot;align-items: center; border-radius: 3px; color: var(--vscode-foreground); cursor: pointer; display: flex; height: 20px; justify-content: center; opacity: 0.3; position: relative; width: 20px; animation: auto ease 0s 1 normal none running none !important;&quot;&gt;&lt;span class=&quot;codicon codicon-reply&quot; style=&quot;animation: auto ease 0s 1 normal none running none !important; display: inline-block; font: 14px / 1 codicon; text-align: center; text-decoration: none; text-rendering: auto; text-transform: none; -webkit-font-smoothing: antialiased; user-select: none;&quot;&gt;&lt;/span&gt;&lt;/div&gt;&lt;div class=&quot;markdown-section-toolbar-item markdown-section-toolbar-copy light&quot; style=&quot;align-items: center; border-radius: 3px; color: var(--vscode-foreground); cursor: pointer; display: flex; height: 20px; justify-content: center; opacity: 0.3; position: relative; width: 20px; animation: auto ease 0s 1 normal none running none !important; pointer-events: auto;&quot;&gt;&lt;span class=&quot;codicon codicon-copy&quot; style=&quot;animation: auto ease 0s 1 normal none running none !important; display: inline-block; font: 14px / 1 codicon; text-align: center; text-decoration: none; text-rendering: auto; text-transform: none; -webkit-font-smoothing: antialiased; user-select: none;&quot;&gt;&lt;/span&gt;&lt;/div&gt;&lt;/div&gt;&lt;/div&gt;&lt;/div&gt;&lt;span style=&quot;margin-top: 0px;&quot;&gt;假设有一个使&lt;/span&gt;&lt;span&gt;用独立表空间的表employees，有&lt;/span&gt;&lt;span style=&quot;margin-bottom: 0px;&quot;&gt;一个department字段的二级索引：&lt;/span&gt;&lt;/section&gt;&lt;section id=&quot;markdown-section--55&quot; class=&quot;markdown-section&quot; data-markdown-raw=&quot;1. 执行查询：`SELECT * FROM employees WHERE department = &#39;IT&#39;`&quot; data-section-index=&quot;55&quot; style=&quot;border-radius: 4px; margin: 6px 0px; padding: 4px; position: relative; scroll-margin-bottom: 40px; scroll-margin-top: 40px; color: rgb(20, 20, 20); font-family: &amp;quot;Segoe WPC&amp;quot;, &amp;quot;Segoe UI&amp;quot;, &amp;quot;Microsoft YaHei&amp;quot;, sans-serif; font-size: 13px; font-style: normal; font-variant-ligatures: normal; font-variant-caps: normal; font-weight: 400; letter-spacing: normal; orphans: 2; text-align: start; text-indent: 0px; text-transform: none; widows: 2; word-spacing: 0px; -webkit-text-stroke-width: 0px; white-space: normal; background-color: rgb(235, 235, 235); text-decoration-thickness: initial; text-decoration-style: initial; text-decoration-color: initial;&quot;&gt;&lt;div class=&quot;markdown-section-toolbar&quot; style=&quot;animation: auto ease 0s 1 normal none running none !important;&quot;&gt;&lt;div style=&quot;animation: auto ease 0s 1 normal none running none !important; height: 0px; width: 810px;&quot;&gt;&lt;div class=&quot;markdown-section-toolbar-internal&quot; style=&quot;border-radius: 4px; display: flex; gap: 4px; opacity: 0; position: absolute; right: 8px; top: 0px; transform: translateY(-55%); z-index: 303; animation: auto ease 0s 1 normal none running none !important;&quot;&gt;&lt;div class=&quot;markdown-section-toolbar-item light&quot; style=&quot;align-items: center; border-radius: 3px; color: var(--vscode-foreground); cursor: pointer; display: flex; height: 20px; justify-content: center; opacity: 0.3; position: relative; width: 20px; animation: auto ease 0s 1 normal none running none !important;&quot;&gt;&lt;span class=&quot;codicon codicon-reply&quot; style=&quot;animation: auto ease 0s 1 normal none running none !important; display: inline-block; font: 14px / 1 codicon; text-align: center; text-decoration: none; text-rendering: auto; text-transform: none; -webkit-font-smoothing: antialiased; user-select: none;&quot;&gt;&lt;/span&gt;&lt;/div&gt;&lt;div class=&quot;markdown-section-toolbar-item markdown-section-toolbar-copy light&quot; style=&quot;align-items: center; border-radius: 3px; color: var(--vscode-foreground); cursor: pointer; display: flex; height: 20px; justify-content: center; opacity: 0.3; position: relative; width: 20px; animation: auto ease 0s 1 normal none running none !important; pointer-events: auto;&quot;&gt;&lt;span class=&quot;codicon codicon-copy&quot; style=&quot;animation: auto ease 0s 1 normal none running none !important; display: inline-block; font: 14px / 1 codicon; text-align: center; text-decoration: none; text-rendering: auto; text-transform: none; -webkit-font-smoothing: antialiased; user-select: none;&quot;&gt;&lt;/span&gt;&lt;/div&gt;&lt;/div&gt;&lt;/div&gt;&lt;/div&gt;&lt;li value=&quot;1&quot; style=&quot;list-style-type: decimal; padding-left: 0px; padding-top: 2px; padding-bottom: 2px; margin-top: 0px; margin-bottom: 0px;&quot;&gt;&lt;span&gt;执行查询：&lt;/span&gt;&lt;span class=&quot;markdown-inline-code&quot; style=&quot;background-color: var(--vscode-textCodeBlock-background); border-radius: 4px; padding: 1px 4px; word-break: break-word; font-family: Consolas, &amp;quot;Courier New&amp;quot;, monospace; cursor: default; color: inherit;&quot;&gt;&lt;span&gt;SELECT * FROM employees&lt;/span&gt;&lt;span&gt;&lt;span&gt;&amp;nbsp;&lt;/span&gt;WHERE department = &#39;IT&#39;&lt;/span&gt;&lt;/span&gt;&lt;/li&gt;&lt;/section&gt;&lt;section id=&quot;markdown-section--57&quot; class=&quot;markdown-section&quot; data-markdown-raw=&quot;2. 加载过程：&quot; data-section-index=&quot;57&quot; style=&quot;border-radius: 4px; margin: 6px 0px; padding: 4px; position: relative; scroll-margin-bottom: 40px; scroll-margin-top: 40px; color: rgb(20, 20, 20); font-family: &amp;quot;Segoe WPC&amp;quot;, &amp;quot;Segoe UI&amp;quot;, &amp;quot;Microsoft YaHei&amp;quot;, sans-serif; font-size: 13px; font-style: normal; font-variant-ligatures: normal; font-variant-caps: normal; font-weight: 400; letter-spacing: normal; orphans: 2; text-align: start; text-indent: 0px; text-transform: none; widows: 2; word-spacing: 0px; -webkit-text-stroke-width: 0px; white-space: normal; background-color: rgb(235, 235, 235); text-decoration-thickness: initial; text-decoration-style: initial; text-decoration-color: initial;&quot;&gt;&lt;div class=&quot;markdown-section-toolbar&quot; style=&quot;animation: auto ease 0s 1 normal none running none !important;&quot;&gt;&lt;div style=&quot;animation: auto ease 0s 1 normal none running none !important; height: 0px; width: 810px;&quot;&gt;&lt;div class=&quot;markdown-section-toolbar-internal&quot; style=&quot;border-radius: 4px; display: flex; gap: 4px; opacity: 0; position: absolute; right: 8px; top: 0px; transform: translateY(-55%); z-index: 303; animation: auto ease 0s 1 normal none running none !important;&quot;&gt;&lt;div class=&quot;markdown-section-toolbar-item light&quot; style=&quot;align-items: center; border-radius: 3px; color: var(--vscode-foreground); cursor: pointer; display: flex; height: 20px; justify-content: center; opacity: 0.3; position: relative; width: 20px; animation: auto ease 0s 1 normal none running none !important;&quot;&gt;&lt;span class=&quot;codicon codicon-reply&quot; style=&quot;animation: auto ease 0s 1 normal none running none !important; display: inline-block; font: 14px / 1 codicon; text-align: center; text-decoration: none; text-rendering: auto; text-transform: none; -webkit-font-smoothing: antialiased; user-select: none;&quot;&gt;&lt;/span&gt;&lt;/div&gt;&lt;div class=&quot;markdown-section-toolbar-item markdown-section-toolbar-copy light&quot; style=&quot;align-items: center; border-radius: 3px; color: var(--vscode-foreground); cursor: pointer; display: flex; height: 20px; justify-content: center; opacity: 0.3; position: relative; width: 20px; animation: auto ease 0s 1 normal none running none !important; pointer-events: auto;&quot;&gt;&lt;span class=&quot;codicon codicon-copy&quot; style=&quot;animation: auto ease 0s 1 normal none running none !important; display: inline-block; font: 14px / 1 codicon; text-align: center; text-decoration: none; text-rendering: auto; text-transform: none; -webkit-font-smoothing: antialiased; user-select: none;&quot;&gt;&lt;/span&gt;&lt;/div&gt;&lt;/div&gt;&lt;/div&gt;&lt;/div&gt;&lt;li value=&quot;2&quot; style=&quot;list-style-type: decimal; padding-left: 0px; padding-top: 2px; padding-bottom: 2px; margin-top: 0px; margin-bottom: 0px;&quot;&gt;&lt;span&gt;加&lt;/span&gt;&lt;span&gt;载过程：&lt;/span&gt;&lt;/li&gt;&lt;/section&gt;&lt;section id=&quot;markdown-section--58&quot; class=&quot;markdown-section&quot; data-markdown-raw=&quot;- 系统定位到employees.ibd文件&quot; data-section-index=&quot;58&quot; style=&quot;border-radius: 4px; margin: 6px 0px; padding: 4px; position: relative; scroll-margin-bottom: 40px; scroll-margin-top: 40px; color: rgb(20, 20, 20); font-family: &amp;quot;Segoe WPC&amp;quot;, &amp;quot;Segoe UI&amp;quot;, &amp;quot;Microsoft YaHei&amp;quot;, sans-serif; font-size: 13px; font-style: normal; font-variant-ligatures: normal; font-variant-caps: normal; font-weight: 400; letter-spacing: normal; orphans: 2; text-align: start; text-indent: 0px; text-transform: none; widows: 2; word-spacing: 0px; -webkit-text-stroke-width: 0px; white-space: normal; background-color: rgb(235, 235, 235); text-decoration-thickness: initial; text-decoration-style: initial; text-decoration-color: initial;&quot;&gt;&lt;div class=&quot;markdown-section-toolbar&quot; style=&quot;animation: auto ease 0s 1 normal none running none !important;&quot;&gt;&lt;div style=&quot;animation: auto ease 0s 1 normal none running none !important; height: 0px; width: 810px;&quot;&gt;&lt;div class=&quot;markdown-section-toolbar-internal&quot; style=&quot;border-radius: 4px; display: flex; gap: 4px; opacity: 0; position: absolute; right: 8px; top: 0px; transform: translateY(-55%); z-index: 303; animation: auto ease 0s 1 normal none running none !important;&quot;&gt;&lt;div class=&quot;markdown-section-toolbar-item light&quot; style=&quot;align-items: center; border-radius: 3px; color: var(--vscode-foreground); cursor: pointer; display: flex; height: 20px; justify-content: center; opacity: 0.3; position: relative; width: 20px; animation: auto ease 0s 1 normal none running none !important;&quot;&gt;&lt;span class=&quot;codicon codicon-reply&quot; style=&quot;animation: auto ease 0s 1 normal none running none !important; display: inline-block; font: 14px / 1 codicon; text-align: center; text-decoration: none; text-rendering: auto; text-transform: none; -webkit-font-smoothing: antialiased; user-select: none;&quot;&gt;&lt;/span&gt;&lt;/div&gt;&lt;div class=&quot;markdown-section-toolbar-item markdown-section-toolbar-copy light&quot; style=&quot;align-items: center; border-radius: 3px; color: var(--vscode-foreground); cursor: pointer; display: flex; height: 20px; justify-content: center; opacity: 0.3; position: relative; width: 20px; animation: auto ease 0s 1 normal none running none !important; pointer-events: auto;&quot;&gt;&lt;span class=&quot;codicon codicon-copy&quot; style=&quot;animation: auto ease 0s 1 normal none running none !important; display: inline-block; font: 14px / 1 codicon; text-align: center; text-decoration: none; text-rendering: auto; text-transform: none; -webkit-font-smoothing: antialiased; user-select: none;&quot;&gt;&lt;/span&gt;&lt;/div&gt;&lt;/div&gt;&lt;/div&gt;&lt;/div&gt;&lt;li style=&quot;padding-left: 24px; padding-top: 2px; padding-bottom: 2px; margin-top: 0px; margin-bottom: 0px;&quot;&gt;&lt;span&gt;系统定&lt;/span&gt;&lt;span&gt;位到employees.ibd文件&lt;/span&gt;&lt;/li&gt;&lt;/section&gt;&lt;section id=&quot;markdown-section--59&quot; class=&quot;markdown-section&quot; data-markdown-raw=&quot;- 找到department索引的段信息&quot; data-section-index=&quot;59&quot; style=&quot;border-radius: 4px; margin: 6px 0px; padding: 4px; position: relative; scroll-margin-bottom: 40px; scroll-margin-top: 40px; color: rgb(20, 20, 20); font-family: &amp;quot;Segoe WPC&amp;quot;, &amp;quot;Segoe UI&amp;quot;, &amp;quot;Microsoft YaHei&amp;quot;, sans-serif; font-size: 13px; font-style: normal; font-variant-ligatures: normal; font-variant-caps: normal; font-weight: 400; letter-spacing: normal; orphans: 2; text-align: start; text-indent: 0px; text-transform: none; widows: 2; word-spacing: 0px; -webkit-text-stroke-width: 0px; white-space: normal; background-color: rgb(235, 235, 235); text-decoration-thickness: initial; text-decoration-style: initial; text-decoration-color: initial;&quot;&gt;&lt;div class=&quot;markdown-section-toolbar&quot; style=&quot;animation: auto ease 0s 1 normal none running none !important;&quot;&gt;&lt;div style=&quot;animation: auto ease 0s 1 normal none running none !important; height: 0px; width: 810px;&quot;&gt;&lt;div class=&quot;markdown-section-toolbar-internal&quot; style=&quot;border-radius: 4px; display: flex; gap: 4px; opacity: 0; position: absolute; right: 8px; top: 0px; transform: translateY(-55%); z-index: 303; animation: auto ease 0s 1 normal none running none !important;&quot;&gt;&lt;div class=&quot;markdown-section-toolbar-item light&quot; style=&quot;align-items: center; border-radius: 3px; color: var(--vscode-foreground); cursor: pointer; display: flex; height: 20px; justify-content: center; opacity: 0.3; position: relative; width: 20px; animation: auto ease 0s 1 normal none running none !important;&quot;&gt;&lt;span class=&quot;codicon codicon-reply&quot; style=&quot;animation: auto ease 0s 1 normal none running none !important; display: inline-block; font: 14px / 1 codicon; text-align: center; text-decoration: none; text-rendering: auto; text-transform: none; -webkit-font-smoothing: antialiased; user-select: none;&quot;&gt;&lt;/span&gt;&lt;/div&gt;&lt;div class=&quot;markdown-section-toolbar-item markdown-section-toolbar-copy light&quot; style=&quot;align-items: center; border-radius: 3px; color: var(--vscode-foreground); cursor: pointer; display: flex; height: 20px; justify-content: center; opacity: 0.3; position: relative; width: 20px; animation: auto ease 0s 1 normal none running none !important; pointer-events: auto;&quot;&gt;&lt;span class=&quot;codicon codicon-copy&quot; style=&quot;animation: auto ease 0s 1 normal none running none !important; display: inline-block; font: 14px / 1 codicon; text-align: center; text-decoration: none; text-rendering: auto; text-transform: none; -webkit-font-smoothing: antialiased; user-select: none;&quot;&gt;&lt;/span&gt;&lt;/div&gt;&lt;/div&gt;&lt;/div&gt;&lt;/div&gt;&lt;li style=&quot;padding-left: 24px; padding-top: 2px; padding-bottom: 2px; margin-top: 0px; margin-bottom: 0px;&quot;&gt;&lt;span&gt;找到&lt;/span&gt;&lt;span&gt;department索引的段信息&lt;/span&gt;&lt;/li&gt;&lt;/section&gt;&lt;section id=&quot;markdown-section--60&quot; class=&quot;markdown-section&quot; data-markdown-raw=&quot;- 加载索引的根页到Buffer Pool&quot; data-section-index=&quot;60&quot; style=&quot;border-radius: 4px; margin: 6px 0px; padding: 4px; position: relative; scroll-margin-bottom: 40px; scroll-margin-top: 40px; color: rgb(20, 20, 20); font-family: &amp;quot;Segoe WPC&amp;quot;, &amp;quot;Segoe UI&amp;quot;, &amp;quot;Microsoft YaHei&amp;quot;, sans-serif; font-size: 13px; font-style: normal; font-variant-ligatures: normal; font-variant-caps: normal; font-weight: 400; letter-spacing: normal; orphans: 2; text-align: start; text-indent: 0px; text-transform: none; widows: 2; word-spacing: 0px; -webkit-text-stroke-width: 0px; white-space: normal; background-color: rgb(235, 235, 235); text-decoration-thickness: initial; text-decoration-style: initial; text-decoration-color: initial;&quot;&gt;&lt;div class=&quot;markdown-section-toolbar&quot; style=&quot;animation: auto ease 0s 1 normal none running none !important;&quot;&gt;&lt;div style=&quot;animation: auto ease 0s 1 normal none running none !important; height: 0px; width: 810px;&quot;&gt;&lt;div class=&quot;markdown-section-toolbar-internal&quot; style=&quot;border-radius: 4px; display: flex; gap: 4px; opacity: 0; position: absolute; right: 8px; top: 0px; transform: translateY(-55%); z-index: 303; animation: auto ease 0s 1 normal none running none !important;&quot;&gt;&lt;div class=&quot;markdown-section-toolbar-item light&quot; style=&quot;align-items: center; border-radius: 3px; color: var(--vscode-foreground); cursor: pointer; display: flex; height: 20px; justify-content: center; opacity: 0.3; position: relative; width: 20px; animation: auto ease 0s 1 normal none running none !important;&quot;&gt;&lt;span class=&quot;codicon codicon-reply&quot; style=&quot;animation: auto ease 0s 1 normal none running none !important; display: inline-block; font: 14px / 1 codicon; text-align: center; text-decoration: none; text-rendering: auto; text-transform: none; -webkit-font-smoothing: antialiased; user-select: none;&quot;&gt;&lt;/span&gt;&lt;/div&gt;&lt;div class=&quot;markdown-section-toolbar-item markdown-section-toolbar-copy light&quot; style=&quot;align-items: center; border-radius: 3px; color: var(--vscode-foreground); cursor: pointer; display: flex; height: 20px; justify-content: center; opacity: 0.3; position: relative; width: 20px; animation: auto ease 0s 1 normal none running none !important; pointer-events: auto;&quot;&gt;&lt;span class=&quot;codicon codicon-copy&quot; style=&quot;animation: auto ease 0s 1 normal none running none !important; display: inline-block; font: 14px / 1 codicon; text-align: center; text-decoration: none; text-rendering: auto; text-transform: none; -webkit-font-smoothing: antialiased; user-select: none;&quot;&gt;&lt;/span&gt;&lt;/div&gt;&lt;/div&gt;&lt;/div&gt;&lt;/div&gt;&lt;li style=&quot;padding-left: 24px; padding-top: 2px; padding-bottom: 2px; margin-top: 0px; margin-bottom: 0px;&quot;&gt;&lt;span&gt;加载索引的根页到Buffer Pool&lt;/span&gt;&lt;/li&gt;&lt;/section&gt;&lt;section id=&quot;markdown-section--61&quot; class=&quot;markdown-section&quot; data-markdown-raw=&quot;- 根据根页信息，继续加载需要的非叶子节点页&quot; data-section-index=&quot;61&quot; style=&quot;border-radius: 4px; margin: 6px 0px; padding: 4px; position: relative; scroll-margin-bottom: 40px; scroll-margin-top: 40px; color: rgb(20, 20, 20); font-family: &amp;quot;Segoe WPC&amp;quot;, &amp;quot;Segoe UI&amp;quot;, &amp;quot;Microsoft YaHei&amp;quot;, sans-serif; font-size: 13px; font-style: normal; font-variant-ligatures: normal; font-variant-caps: normal; font-weight: 400; letter-spacing: normal; orphans: 2; text-align: start; text-indent: 0px; text-transform: none; widows: 2; word-spacing: 0px; -webkit-text-stroke-width: 0px; white-space: normal; background-color: rgb(235, 235, 235); text-decoration-thickness: initial; text-decoration-style: initial; text-decoration-color: initial;&quot;&gt;&lt;div class=&quot;markdown-section-toolbar&quot; style=&quot;animation: auto ease 0s 1 normal none running none !important;&quot;&gt;&lt;div style=&quot;animation: auto ease 0s 1 normal none running none !important; height: 0px; width: 810px;&quot;&gt;&lt;div class=&quot;markdown-section-toolbar-internal&quot; style=&quot;border-radius: 4px; display: flex; gap: 4px; opacity: 0; position: absolute; right: 8px; top: 0px; transform: translateY(-55%); z-index: 303; animation: auto ease 0s 1 normal none running none !important;&quot;&gt;&lt;div class=&quot;markdown-section-toolbar-item light&quot; style=&quot;align-items: center; border-radius: 3px; color: var(--vscode-foreground); cursor: pointer; display: flex; height: 20px; justify-content: center; opacity: 0.3; position: relative; width: 20px; animation: auto ease 0s 1 normal none running none !important;&quot;&gt;&lt;span class=&quot;codicon codicon-reply&quot; style=&quot;animation: auto ease 0s 1 normal none running none !important; display: inline-block; font: 14px / 1 codicon; text-align: center; text-decoration: none; text-rendering: auto; text-transform: none; -webkit-font-smoothing: antialiased; user-select: none;&quot;&gt;&lt;/span&gt;&lt;/div&gt;&lt;div class=&quot;markdown-section-toolbar-item markdown-section-toolbar-copy light&quot; style=&quot;align-items: center; border-radius: 3px; color: var(--vscode-foreground); cursor: pointer; display: flex; height: 20px; justify-content: center; opacity: 0.3; position: relative; width: 20px; animation: auto ease 0s 1 normal none running none !important; pointer-events: auto;&quot;&gt;&lt;span class=&quot;codicon codicon-copy&quot; style=&quot;animation: auto ease 0s 1 normal none running none !important; display: inline-block; font: 14px / 1 codicon; text-align: center; text-decoration: none; text-rendering: auto; text-transform: none; -webkit-font-smoothing: antialiased; user-select: none;&quot;&gt;&lt;/span&gt;&lt;/div&gt;&lt;/div&gt;&lt;/div&gt;&lt;/div&gt;&lt;li style=&quot;padding-left: 24px; padding-top: 2px; padding-bottom: 2px; margin-top: 0px; margin-bottom: 0px;&quot;&gt;&lt;span&gt;根据根页信息，继续加载需要&lt;/span&gt;&lt;span&gt;的非叶子节点页&lt;/span&gt;&lt;/li&gt;&lt;/section&gt;&lt;section id=&quot;markdown-section--62&quot; class=&quot;markdown-section&quot; data-markdown-raw=&quot;- 最终加载包含&#39;IT&#39;值的叶子节点页&quot; data-section-index=&quot;62&quot; style=&quot;border-radius: 4px; margin: 6px 0px; padding: 4px; position: relative; scroll-margin-bottom: 40px; scroll-margin-top: 40px; color: rgb(20, 20, 20); font-family: &amp;quot;Segoe WPC&amp;quot;, &amp;quot;Segoe UI&amp;quot;, &amp;quot;Microsoft YaHei&amp;quot;, sans-serif; font-size: 13px; font-style: normal; font-variant-ligatures: normal; font-variant-caps: normal; font-weight: 400; letter-spacing: normal; orphans: 2; text-align: start; text-indent: 0px; text-transform: none; widows: 2; word-spacing: 0px; -webkit-text-stroke-width: 0px; white-space: normal; background-color: rgb(235, 235, 235); text-decoration-thickness: initial; text-decoration-style: initial; text-decoration-color: initial;&quot;&gt;&lt;div class=&quot;markdown-section-toolbar&quot; style=&quot;animation: auto ease 0s 1 normal none running none !important;&quot;&gt;&lt;div style=&quot;animation: auto ease 0s 1 normal none running none !important; height: 0px; width: 810px;&quot;&gt;&lt;div class=&quot;markdown-section-toolbar-internal&quot; style=&quot;border-radius: 4px; display: flex; gap: 4px; opacity: 0; position: absolute; right: 8px; top: 0px; transform: translateY(-55%); z-index: 303; animation: auto ease 0s 1 normal none running none !important;&quot;&gt;&lt;div class=&quot;markdown-section-toolbar-item light&quot; style=&quot;align-items: center; border-radius: 3px; color: var(--vscode-foreground); cursor: pointer; display: flex; height: 20px; justify-content: center; opacity: 0.3; position: relative; width: 20px; animation: auto ease 0s 1 normal none running none !important;&quot;&gt;&lt;span class=&quot;codicon codicon-reply&quot; style=&quot;animation: auto ease 0s 1 normal none running none !important; display: inline-block; font: 14px / 1 codicon; text-align: center; text-decoration: none; text-rendering: auto; text-transform: none; -webkit-font-smoothing: antialiased; user-select: none;&quot;&gt;&lt;/span&gt;&lt;/div&gt;&lt;div class=&quot;markdown-section-toolbar-item markdown-section-toolbar-copy light&quot; style=&quot;align-items: center; border-radius: 3px; color: var(--vscode-foreground); cursor: pointer; display: flex; height: 20px; justify-content: center; opacity: 0.3; position: relative; width: 20px; animation: auto ease 0s 1 normal none running none !important; pointer-events: auto;&quot;&gt;&lt;span class=&quot;codicon codicon-copy&quot; style=&quot;animation: auto ease 0s 1 normal none running none !important; display: inline-block; font: 14px / 1 codicon; text-align: center; text-decoration: none; text-rendering: auto; text-transform: none; -webkit-font-smoothing: antialiased; user-select: none;&quot;&gt;&lt;/span&gt;&lt;/div&gt;&lt;/div&gt;&lt;/div&gt;&lt;/div&gt;&lt;li style=&quot;padding-left: 24px; padding-top: 2px; padding-bottom: 2px; margin-top: 0px; margin-bottom: 0px;&quot;&gt;&lt;span&gt;最终加载包含&#39;IT&#39;值&lt;/span&gt;&lt;span&gt;的叶子节点页&lt;/span&gt;&lt;/li&gt;&lt;/section&gt;&lt;section id=&quot;markdown-section--63&quot; class=&quot;markdown-section&quot; data-markdown-raw=&quot;- 从叶子节点获取主键值，再去聚集索引查找完整记录&quot; data-section-index=&quot;63&quot; style=&quot;border-radius: 4px; margin: 6px 0px; padding: 4px; position: relative; scroll-margin-bottom: 40px; scroll-margin-top: 40px; color: rgb(20, 20, 20); font-family: &amp;quot;Segoe WPC&amp;quot;, &amp;quot;Segoe UI&amp;quot;, &amp;quot;Microsoft YaHei&amp;quot;, sans-serif; font-size: 13px; font-style: normal; font-variant-ligatures: normal; font-variant-caps: normal; font-weight: 400; letter-spacing: normal; orphans: 2; text-align: start; text-indent: 0px; text-transform: none; widows: 2; word-spacing: 0px; -webkit-text-stroke-width: 0px; white-space: normal; background-color: rgb(235, 235, 235); text-decoration-thickness: initial; text-decoration-style: initial; text-decoration-color: initial;&quot;&gt;&lt;div class=&quot;markdown-section-toolbar&quot; style=&quot;animation: auto ease 0s 1 normal none running none !important;&quot;&gt;&lt;div style=&quot;animation: auto ease 0s 1 normal none running none !important; height: 0px; width: 810px;&quot;&gt;&lt;div class=&quot;markdown-section-toolbar-internal&quot; style=&quot;border-radius: 4px; display: flex; gap: 4px; opacity: 1; position: absolute; right: 8px; top: 0px; transform: translateY(-55%); z-index: 303; animation: auto ease 0s 1 normal none running none !important;&quot;&gt;&lt;div class=&quot;markdown-section-toolbar-item light&quot; style=&quot;align-items: center; border-radius: 3px; color: var(--vscode-foreground); cursor: pointer; display: flex; height: 20px; justify-content: center; opacity: 0.3; position: relative; width: 20px; animation: auto ease 0s 1 normal none running none !important;&quot;&gt;&lt;span class=&quot;codicon codicon-reply&quot; style=&quot;animation: auto ease 0s 1 normal none running none !important; display: inline-block; font: 14px / 1 codicon; text-align: center; text-decoration: none; text-rendering: auto; text-transform: none; -webkit-font-smoothing: antialiased; user-select: none;&quot;&gt;&lt;/span&gt;&lt;/div&gt;&lt;div class=&quot;markdown-section-toolbar-item markdown-section-toolbar-copy light&quot; style=&quot;align-items: center; border-radius: 3px; color: var(--vscode-foreground); cursor: pointer; display: flex; height: 20px; justify-content: center; opacity: 0.3; position: relative; width: 20px; animation: auto ease 0s 1 normal none running none !important; pointer-events: auto;&quot;&gt;&lt;span class=&quot;codicon codicon-copy&quot; style=&quot;animation: auto ease 0s 1 normal none running none !important; display: inline-block; font: 14px / 1 codicon; text-align: center; text-decoration: none; text-rendering: auto; text-transform: none; -webkit-font-smoothing: antialiased; user-select: none;&quot;&gt;&lt;/span&gt;&lt;/div&gt;&lt;/div&gt;&lt;/div&gt;&lt;/div&gt;&lt;li style=&quot;padding-left: 24px; padding-top: 2px; padding-bottom: 2px; margin-top: 0px; margin-bottom: 0px;&quot;&gt;&lt;span&gt;从&lt;/span&gt;&lt;span&gt;叶子节点获取主键值，再去&lt;/span&gt;&lt;span&gt;聚集索引查找完整记录&lt;/span&gt;&lt;/li&gt;&lt;/section&gt;" link="&lt;section id=&quot;markdown-section--51&quot; class=&quot;markdown-section&quot; data-markdown-raw=&quot;## 实际示例&quot; data-section-index=&quot;51&quot; style=&quot;border-radius: 4px; margin: 22px 0px 6px; padding: 4px; position: relative; scroll-margin-bottom: 40px; scroll-margin-top: 40px; color: rgb(20, 20, 20); font-family: &amp;quot;Segoe WPC&amp;quot;, &amp;quot;Segoe UI&amp;quot;, &amp;quot;Microsoft YaHei&amp;quot;, sans-serif; font-size: 13px; font-style: normal; font-variant-ligatures: normal; font-variant-caps: normal; font-weight: 400; letter-spacing: normal; orphans: 2; text-align: start; text-indent: 0px; text-transform: none; widows: 2; word-spacing: 0px; -webkit-text-stroke-width: 0px; white-space: normal; background-color: rgb(235, 235, 235); text-decoration-thickness: initial; text-decoration-style: initial; text-decoration-color: initial;&quot;&gt;&lt;h2 style=&quot;font-weight: 600 !important; margin-bottom: 0px; margin-top: 0px;&quot;&gt;&lt;span&gt;实&lt;/span&gt;&lt;span&gt;际示例&lt;/span&gt;&lt;/h2&gt;&lt;/section&gt;&lt;section id=&quot;markdown-section--53&quot; class=&quot;markdown-section&quot; data-markdown-raw=&quot;假设有一个使用独立表空间的表employees，有一个department字段的二级索引：&quot; data-section-index=&quot;53&quot; style=&quot;border-radius: 4px; margin: 6px 0px; padding: 4px; position: relative; scroll-margin-bottom: 40px; scroll-margin-top: 40px; color: rgb(20, 20, 20); font-family: &amp;quot;Segoe WPC&amp;quot;, &amp;quot;Segoe UI&amp;quot;, &amp;quot;Microsoft YaHei&amp;quot;, sans-serif; font-size: 13px; font-style: normal; font-variant-ligatures: normal; font-variant-caps: normal; font-weight: 400; letter-spacing: normal; orphans: 2; text-align: start; text-indent: 0px; text-transform: none; widows: 2; word-spacing: 0px; -webkit-text-stroke-width: 0px; white-space: normal; background-color: rgb(235, 235, 235); text-decoration-thickness: initial; text-decoration-style: initial; text-decoration-color: initial;&quot;&gt;&lt;div class=&quot;markdown-section-toolbar&quot; style=&quot;animation: auto ease 0s 1 normal none running none !important;&quot;&gt;&lt;div style=&quot;animation: auto ease 0s 1 normal none running none !important; height: 0px; width: 810px;&quot;&gt;&lt;div class=&quot;markdown-section-toolbar-internal&quot; style=&quot;border-radius: 4px; display: flex; gap: 4px; opacity: 0; position: absolute; right: 8px; top: 0px; transform: translateY(-55%); z-index: 303; animation: auto ease 0s 1 normal none running none !important;&quot;&gt;&lt;div class=&quot;markdown-section-toolbar-item light&quot; style=&quot;align-items: center; border-radius: 3px; color: var(--vscode-foreground); cursor: pointer; display: flex; height: 20px; justify-content: center; opacity: 0.3; position: relative; width: 20px; animation: auto ease 0s 1 normal none running none !important;&quot;&gt;&lt;span class=&quot;codicon codicon-reply&quot; style=&quot;animation: auto ease 0s 1 normal none running none !important; display: inline-block; font: 14px / 1 codicon; text-align: center; text-decoration: none; text-rendering: auto; text-transform: none; -webkit-font-smoothing: antialiased; user-select: none;&quot;&gt;&lt;/span&gt;&lt;/div&gt;&lt;div class=&quot;markdown-section-toolbar-item markdown-section-toolbar-copy light&quot; style=&quot;align-items: center; border-radius: 3px; color: var(--vscode-foreground); cursor: pointer; display: flex; height: 20px; justify-content: center; opacity: 0.3; position: relative; width: 20px; animation: auto ease 0s 1 normal none running none !important; pointer-events: auto;&quot;&gt;&lt;span class=&quot;codicon codicon-copy&quot; style=&quot;animation: auto ease 0s 1 normal none running none !important; display: inline-block; font: 14px / 1 codicon; text-align: center; text-decoration: none; text-rendering: auto; text-transform: none; -webkit-font-smoothing: antialiased; user-select: none;&quot;&gt;&lt;/span&gt;&lt;/div&gt;&lt;/div&gt;&lt;/div&gt;&lt;/div&gt;&lt;span style=&quot;margin-top: 0px;&quot;&gt;假设有一个使&lt;/span&gt;&lt;span&gt;用独立表空间的表employees，有&lt;/span&gt;&lt;span style=&quot;margin-bottom: 0px;&quot;&gt;一个department字段的二级索引：&lt;/span&gt;&lt;/section&gt;&lt;section id=&quot;markdown-section--55&quot; class=&quot;markdown-section&quot; data-markdown-raw=&quot;1. 执行查询：`SELECT * FROM employees WHERE department = &#39;IT&#39;`&quot; data-section-index=&quot;55&quot; style=&quot;border-radius: 4px; margin: 6px 0px; padding: 4px; position: relative; scroll-margin-bottom: 40px; scroll-margin-top: 40px; color: rgb(20, 20, 20); font-family: &amp;quot;Segoe WPC&amp;quot;, &amp;quot;Segoe UI&amp;quot;, &amp;quot;Microsoft YaHei&amp;quot;, sans-serif; font-size: 13px; font-style: normal; font-variant-ligatures: normal; font-variant-caps: normal; font-weight: 400; letter-spacing: normal; orphans: 2; text-align: start; text-indent: 0px; text-transform: none; widows: 2; word-spacing: 0px; -webkit-text-stroke-width: 0px; white-space: normal; background-color: rgb(235, 235, 235); text-decoration-thickness: initial; text-decoration-style: initial; text-decoration-color: initial;&quot;&gt;&lt;div class=&quot;markdown-section-toolbar&quot; style=&quot;animation: auto ease 0s 1 normal none running none !important;&quot;&gt;&lt;div style=&quot;animation: auto ease 0s 1 normal none running none !important; height: 0px; width: 810px;&quot;&gt;&lt;div class=&quot;markdown-section-toolbar-internal&quot; style=&quot;border-radius: 4px; display: flex; gap: 4px; opacity: 0; position: absolute; right: 8px; top: 0px; transform: translateY(-55%); z-index: 303; animation: auto ease 0s 1 normal none running none !important;&quot;&gt;&lt;div class=&quot;markdown-section-toolbar-item light&quot; style=&quot;align-items: center; border-radius: 3px; color: var(--vscode-foreground); cursor: pointer; display: flex; height: 20px; justify-content: center; opacity: 0.3; position: relative; width: 20px; animation: auto ease 0s 1 normal none running none !important;&quot;&gt;&lt;span class=&quot;codicon codicon-reply&quot; style=&quot;animation: auto ease 0s 1 normal none running none !important; display: inline-block; font: 14px / 1 codicon; text-align: center; text-decoration: none; text-rendering: auto; text-transform: none; -webkit-font-smoothing: antialiased; user-select: none;&quot;&gt;&lt;/span&gt;&lt;/div&gt;&lt;div class=&quot;markdown-section-toolbar-item markdown-section-toolbar-copy light&quot; style=&quot;align-items: center; border-radius: 3px; color: var(--vscode-foreground); cursor: pointer; display: flex; height: 20px; justify-content: center; opacity: 0.3; position: relative; width: 20px; animation: auto ease 0s 1 normal none running none !important; pointer-events: auto;&quot;&gt;&lt;span class=&quot;codicon codicon-copy&quot; style=&quot;animation: auto ease 0s 1 normal none running none !important; display: inline-block; font: 14px / 1 codicon; text-align: center; text-decoration: none; text-rendering: auto; text-transform: none; -webkit-font-smoothing: antialiased; user-select: none;&quot;&gt;&lt;/span&gt;&lt;/div&gt;&lt;/div&gt;&lt;/div&gt;&lt;/div&gt;&lt;li value=&quot;1&quot; style=&quot;list-style-type: decimal; padding-left: 0px; padding-top: 2px; padding-bottom: 2px; margin-top: 0px; margin-bottom: 0px;&quot;&gt;&lt;span&gt;执行查询：&lt;/span&gt;&lt;span class=&quot;markdown-inline-code&quot; style=&quot;background-color: var(--vscode-textCodeBlock-background); border-radius: 4px; padding: 1px 4px; word-break: break-word; font-family: Consolas, &amp;quot;Courier New&amp;quot;, monospace; cursor: default; color: inherit;&quot;&gt;&lt;span&gt;SELECT * FROM employees&lt;/span&gt;&lt;span&gt;&lt;span&gt;&amp;nbsp;&lt;/span&gt;WHERE department = &#39;IT&#39;&lt;/span&gt;&lt;/span&gt;&lt;/li&gt;&lt;/section&gt;&lt;section id=&quot;markdown-section--57&quot; class=&quot;markdown-section&quot; data-markdown-raw=&quot;2. 加载过程：&quot; data-section-index=&quot;57&quot; style=&quot;border-radius: 4px; margin: 6px 0px; padding: 4px; position: relative; scroll-margin-bottom: 40px; scroll-margin-top: 40px; color: rgb(20, 20, 20); font-family: &amp;quot;Segoe WPC&amp;quot;, &amp;quot;Segoe UI&amp;quot;, &amp;quot;Microsoft YaHei&amp;quot;, sans-serif; font-size: 13px; font-style: normal; font-variant-ligatures: normal; font-variant-caps: normal; font-weight: 400; letter-spacing: normal; orphans: 2; text-align: start; text-indent: 0px; text-transform: none; widows: 2; word-spacing: 0px; -webkit-text-stroke-width: 0px; white-space: normal; background-color: rgb(235, 235, 235); text-decoration-thickness: initial; text-decoration-style: initial; text-decoration-color: initial;&quot;&gt;&lt;div class=&quot;markdown-section-toolbar&quot; style=&quot;animation: auto ease 0s 1 normal none running none !important;&quot;&gt;&lt;div style=&quot;animation: auto ease 0s 1 normal none running none !important; height: 0px; width: 810px;&quot;&gt;&lt;div class=&quot;markdown-section-toolbar-internal&quot; style=&quot;border-radius: 4px; display: flex; gap: 4px; opacity: 0; position: absolute; right: 8px; top: 0px; transform: translateY(-55%); z-index: 303; animation: auto ease 0s 1 normal none running none !important;&quot;&gt;&lt;div class=&quot;markdown-section-toolbar-item light&quot; style=&quot;align-items: center; border-radius: 3px; color: var(--vscode-foreground); cursor: pointer; display: flex; height: 20px; justify-content: center; opacity: 0.3; position: relative; width: 20px; animation: auto ease 0s 1 normal none running none !important;&quot;&gt;&lt;span class=&quot;codicon codicon-reply&quot; style=&quot;animation: auto ease 0s 1 normal none running none !important; display: inline-block; font: 14px / 1 codicon; text-align: center; text-decoration: none; text-rendering: auto; text-transform: none; -webkit-font-smoothing: antialiased; user-select: none;&quot;&gt;&lt;/span&gt;&lt;/div&gt;&lt;div class=&quot;markdown-section-toolbar-item markdown-section-toolbar-copy light&quot; style=&quot;align-items: center; border-radius: 3px; color: var(--vscode-foreground); cursor: pointer; display: flex; height: 20px; justify-content: center; opacity: 0.3; position: relative; width: 20px; animation: auto ease 0s 1 normal none running none !important; pointer-events: auto;&quot;&gt;&lt;span class=&quot;codicon codicon-copy&quot; style=&quot;animation: auto ease 0s 1 normal none running none !important; display: inline-block; font: 14px / 1 codicon; text-align: center; text-decoration: none; text-rendering: auto; text-transform: none; -webkit-font-smoothing: antialiased; user-select: none;&quot;&gt;&lt;/span&gt;&lt;/div&gt;&lt;/div&gt;&lt;/div&gt;&lt;/div&gt;&lt;li value=&quot;2&quot; style=&quot;list-style-type: decimal; padding-left: 0px; padding-top: 2px; padding-bottom: 2px; margin-top: 0px; margin-bottom: 0px;&quot;&gt;&lt;span&gt;加&lt;/span&gt;&lt;span&gt;载过程：&lt;/span&gt;&lt;/li&gt;&lt;/section&gt;&lt;section id=&quot;markdown-section--58&quot; class=&quot;markdown-section&quot; data-markdown-raw=&quot;- 系统定位到employees.ibd文件&quot; data-section-index=&quot;58&quot; style=&quot;border-radius: 4px; margin: 6px 0px; padding: 4px; position: relative; scroll-margin-bottom: 40px; scroll-margin-top: 40px; color: rgb(20, 20, 20); font-family: &amp;quot;Segoe WPC&amp;quot;, &amp;quot;Segoe UI&amp;quot;, &amp;quot;Microsoft YaHei&amp;quot;, sans-serif; font-size: 13px; font-style: normal; font-variant-ligatures: normal; font-variant-caps: normal; font-weight: 400; letter-spacing: normal; orphans: 2; text-align: start; text-indent: 0px; text-transform: none; widows: 2; word-spacing: 0px; -webkit-text-stroke-width: 0px; white-space: normal; background-color: rgb(235, 235, 235); text-decoration-thickness: initial; text-decoration-style: initial; text-decoration-color: initial;&quot;&gt;&lt;div class=&quot;markdown-section-toolbar&quot; style=&quot;animation: auto ease 0s 1 normal none running none !important;&quot;&gt;&lt;div style=&quot;animation: auto ease 0s 1 normal none running none !important; height: 0px; width: 810px;&quot;&gt;&lt;div class=&quot;markdown-section-toolbar-internal&quot; style=&quot;border-radius: 4px; display: flex; gap: 4px; opacity: 0; position: absolute; right: 8px; top: 0px; transform: translateY(-55%); z-index: 303; animation: auto ease 0s 1 normal none running none !important;&quot;&gt;&lt;div class=&quot;markdown-section-toolbar-item light&quot; style=&quot;align-items: center; border-radius: 3px; color: var(--vscode-foreground); cursor: pointer; display: flex; height: 20px; justify-content: center; opacity: 0.3; position: relative; width: 20px; animation: auto ease 0s 1 normal none running none !important;&quot;&gt;&lt;span class=&quot;codicon codicon-reply&quot; style=&quot;animation: auto ease 0s 1 normal none running none !important; display: inline-block; font: 14px / 1 codicon; text-align: center; text-decoration: none; text-rendering: auto; text-transform: none; -webkit-font-smoothing: antialiased; user-select: none;&quot;&gt;&lt;/span&gt;&lt;/div&gt;&lt;div class=&quot;markdown-section-toolbar-item markdown-section-toolbar-copy light&quot; style=&quot;align-items: center; border-radius: 3px; color: var(--vscode-foreground); cursor: pointer; display: flex; height: 20px; justify-content: center; opacity: 0.3; position: relative; width: 20px; animation: auto ease 0s 1 normal none running none !important; pointer-events: auto;&quot;&gt;&lt;span class=&quot;codicon codicon-copy&quot; style=&quot;animation: auto ease 0s 1 normal none running none !important; display: inline-block; font: 14px / 1 codicon; text-align: center; text-decoration: none; text-rendering: auto; text-transform: none; -webkit-font-smoothing: antialiased; user-select: none;&quot;&gt;&lt;/span&gt;&lt;/div&gt;&lt;/div&gt;&lt;/div&gt;&lt;/div&gt;&lt;li style=&quot;padding-left: 24px; padding-top: 2px; padding-bottom: 2px; margin-top: 0px; margin-bottom: 0px;&quot;&gt;&lt;span&gt;系统定&lt;/span&gt;&lt;span&gt;位到employees.ibd文件&lt;/span&gt;&lt;/li&gt;&lt;/section&gt;&lt;section id=&quot;markdown-section--59&quot; class=&quot;markdown-section&quot; data-markdown-raw=&quot;- 找到department索引的段信息&quot; data-section-index=&quot;59&quot; style=&quot;border-radius: 4px; margin: 6px 0px; padding: 4px; position: relative; scroll-margin-bottom: 40px; scroll-margin-top: 40px; color: rgb(20, 20, 20); font-family: &amp;quot;Segoe WPC&amp;quot;, &amp;quot;Segoe UI&amp;quot;, &amp;quot;Microsoft YaHei&amp;quot;, sans-serif; font-size: 13px; font-style: normal; font-variant-ligatures: normal; font-variant-caps: normal; font-weight: 400; letter-spacing: normal; orphans: 2; text-align: start; text-indent: 0px; text-transform: none; widows: 2; word-spacing: 0px; -webkit-text-stroke-width: 0px; white-space: normal; background-color: rgb(235, 235, 235); text-decoration-thickness: initial; text-decoration-style: initial; text-decoration-color: initial;&quot;&gt;&lt;div class=&quot;markdown-section-toolbar&quot; style=&quot;animation: auto ease 0s 1 normal none running none !important;&quot;&gt;&lt;div style=&quot;animation: auto ease 0s 1 normal none running none !important; height: 0px; width: 810px;&quot;&gt;&lt;div class=&quot;markdown-section-toolbar-internal&quot; style=&quot;border-radius: 4px; display: flex; gap: 4px; opacity: 0; position: absolute; right: 8px; top: 0px; transform: translateY(-55%); z-index: 303; animation: auto ease 0s 1 normal none running none !important;&quot;&gt;&lt;div class=&quot;markdown-section-toolbar-item light&quot; style=&quot;align-items: center; border-radius: 3px; color: var(--vscode-foreground); cursor: pointer; display: flex; height: 20px; justify-content: center; opacity: 0.3; position: relative; width: 20px; animation: auto ease 0s 1 normal none running none !important;&quot;&gt;&lt;span class=&quot;codicon codicon-reply&quot; style=&quot;animation: auto ease 0s 1 normal none running none !important; display: inline-block; font: 14px / 1 codicon; text-align: center; text-decoration: none; text-rendering: auto; text-transform: none; -webkit-font-smoothing: antialiased; user-select: none;&quot;&gt;&lt;/span&gt;&lt;/div&gt;&lt;div class=&quot;markdown-section-toolbar-item markdown-section-toolbar-copy light&quot; style=&quot;align-items: center; border-radius: 3px; color: var(--vscode-foreground); cursor: pointer; display: flex; height: 20px; justify-content: center; opacity: 0.3; position: relative; width: 20px; animation: auto ease 0s 1 normal none running none !important; pointer-events: auto;&quot;&gt;&lt;span class=&quot;codicon codicon-copy&quot; style=&quot;animation: auto ease 0s 1 normal none running none !important; display: inline-block; font: 14px / 1 codicon; text-align: center; text-decoration: none; text-rendering: auto; text-transform: none; -webkit-font-smoothing: antialiased; user-select: none;&quot;&gt;&lt;/span&gt;&lt;/div&gt;&lt;/div&gt;&lt;/div&gt;&lt;/div&gt;&lt;li style=&quot;padding-left: 24px; padding-top: 2px; padding-bottom: 2px; margin-top: 0px; margin-bottom: 0px;&quot;&gt;&lt;span&gt;找到&lt;/span&gt;&lt;span&gt;department索引的段信息&lt;/span&gt;&lt;/li&gt;&lt;/section&gt;&lt;section id=&quot;markdown-section--60&quot; class=&quot;markdown-section&quot; data-markdown-raw=&quot;- 加载索引的根页到Buffer Pool&quot; data-section-index=&quot;60&quot; style=&quot;border-radius: 4px; margin: 6px 0px; padding: 4px; position: relative; scroll-margin-bottom: 40px; scroll-margin-top: 40px; color: rgb(20, 20, 20); font-family: &amp;quot;Segoe WPC&amp;quot;, &amp;quot;Segoe UI&amp;quot;, &amp;quot;Microsoft YaHei&amp;quot;, sans-serif; font-size: 13px; font-style: normal; font-variant-ligatures: normal; font-variant-caps: normal; font-weight: 400; letter-spacing: normal; orphans: 2; text-align: start; text-indent: 0px; text-transform: none; widows: 2; word-spacing: 0px; -webkit-text-stroke-width: 0px; white-space: normal; background-color: rgb(235, 235, 235); text-decoration-thickness: initial; text-decoration-style: initial; text-decoration-color: initial;&quot;&gt;&lt;div class=&quot;markdown-section-toolbar&quot; style=&quot;animation: auto ease 0s 1 normal none running none !important;&quot;&gt;&lt;div style=&quot;animation: auto ease 0s 1 normal none running none !important; height: 0px; width: 810px;&quot;&gt;&lt;div class=&quot;markdown-section-toolbar-internal&quot; style=&quot;border-radius: 4px; display: flex; gap: 4px; opacity: 0; position: absolute; right: 8px; top: 0px; transform: translateY(-55%); z-index: 303; animation: auto ease 0s 1 normal none running none !important;&quot;&gt;&lt;div class=&quot;markdown-section-toolbar-item light&quot; style=&quot;align-items: center; border-radius: 3px; color: var(--vscode-foreground); cursor: pointer; display: flex; height: 20px; justify-content: center; opacity: 0.3; position: relative; width: 20px; animation: auto ease 0s 1 normal none running none !important;&quot;&gt;&lt;span class=&quot;codicon codicon-reply&quot; style=&quot;animation: auto ease 0s 1 normal none running none !important; display: inline-block; font: 14px / 1 codicon; text-align: center; text-decoration: none; text-rendering: auto; text-transform: none; -webkit-font-smoothing: antialiased; user-select: none;&quot;&gt;&lt;/span&gt;&lt;/div&gt;&lt;div class=&quot;markdown-section-toolbar-item markdown-section-toolbar-copy light&quot; style=&quot;align-items: center; border-radius: 3px; color: var(--vscode-foreground); cursor: pointer; display: flex; height: 20px; justify-content: center; opacity: 0.3; position: relative; width: 20px; animation: auto ease 0s 1 normal none running none !important; pointer-events: auto;&quot;&gt;&lt;span class=&quot;codicon codicon-copy&quot; style=&quot;animation: auto ease 0s 1 normal none running none !important; display: inline-block; font: 14px / 1 codicon; text-align: center; text-decoration: none; text-rendering: auto; text-transform: none; -webkit-font-smoothing: antialiased; user-select: none;&quot;&gt;&lt;/span&gt;&lt;/div&gt;&lt;/div&gt;&lt;/div&gt;&lt;/div&gt;&lt;li style=&quot;padding-left: 24px; padding-top: 2px; padding-bottom: 2px; margin-top: 0px; margin-bottom: 0px;&quot;&gt;&lt;span&gt;加载索引的根页到Buffer Pool&lt;/span&gt;&lt;/li&gt;&lt;/section&gt;&lt;section id=&quot;markdown-section--61&quot; class=&quot;markdown-section&quot; data-markdown-raw=&quot;- 根据根页信息，继续加载需要的非叶子节点页&quot; data-section-index=&quot;61&quot; style=&quot;border-radius: 4px; margin: 6px 0px; padding: 4px; position: relative; scroll-margin-bottom: 40px; scroll-margin-top: 40px; color: rgb(20, 20, 20); font-family: &amp;quot;Segoe WPC&amp;quot;, &amp;quot;Segoe UI&amp;quot;, &amp;quot;Microsoft YaHei&amp;quot;, sans-serif; font-size: 13px; font-style: normal; font-variant-ligatures: normal; font-variant-caps: normal; font-weight: 400; letter-spacing: normal; orphans: 2; text-align: start; text-indent: 0px; text-transform: none; widows: 2; word-spacing: 0px; -webkit-text-stroke-width: 0px; white-space: normal; background-color: rgb(235, 235, 235); text-decoration-thickness: initial; text-decoration-style: initial; text-decoration-color: initial;&quot;&gt;&lt;div class=&quot;markdown-section-toolbar&quot; style=&quot;animation: auto ease 0s 1 normal none running none !important;&quot;&gt;&lt;div style=&quot;animation: auto ease 0s 1 normal none running none !important; height: 0px; width: 810px;&quot;&gt;&lt;div class=&quot;markdown-section-toolbar-internal&quot; style=&quot;border-radius: 4px; display: flex; gap: 4px; opacity: 0; position: absolute; right: 8px; top: 0px; transform: translateY(-55%); z-index: 303; animation: auto ease 0s 1 normal none running none !important;&quot;&gt;&lt;div class=&quot;markdown-section-toolbar-item light&quot; style=&quot;align-items: center; border-radius: 3px; color: var(--vscode-foreground); cursor: pointer; display: flex; height: 20px; justify-content: center; opacity: 0.3; position: relative; width: 20px; animation: auto ease 0s 1 normal none running none !important;&quot;&gt;&lt;span class=&quot;codicon codicon-reply&quot; style=&quot;animation: auto ease 0s 1 normal none running none !important; display: inline-block; font: 14px / 1 codicon; text-align: center; text-decoration: none; text-rendering: auto; text-transform: none; -webkit-font-smoothing: antialiased; user-select: none;&quot;&gt;&lt;/span&gt;&lt;/div&gt;&lt;div class=&quot;markdown-section-toolbar-item markdown-section-toolbar-copy light&quot; style=&quot;align-items: center; border-radius: 3px; color: var(--vscode-foreground); cursor: pointer; display: flex; height: 20px; justify-content: center; opacity: 0.3; position: relative; width: 20px; animation: auto ease 0s 1 normal none running none !important; pointer-events: auto;&quot;&gt;&lt;span class=&quot;codicon codicon-copy&quot; style=&quot;animation: auto ease 0s 1 normal none running none !important; display: inline-block; font: 14px / 1 codicon; text-align: center; text-decoration: none; text-rendering: auto; text-transform: none; -webkit-font-smoothing: antialiased; user-select: none;&quot;&gt;&lt;/span&gt;&lt;/div&gt;&lt;/div&gt;&lt;/div&gt;&lt;/div&gt;&lt;li style=&quot;padding-left: 24px; padding-top: 2px; padding-bottom: 2px; margin-top: 0px; margin-bottom: 0px;&quot;&gt;&lt;span&gt;根据根页信息，继续加载需要&lt;/span&gt;&lt;span&gt;的非叶子节点页&lt;/span&gt;&lt;/li&gt;&lt;/section&gt;&lt;section id=&quot;markdown-section--62&quot; class=&quot;markdown-section&quot; data-markdown-raw=&quot;- 最终加载包含&#39;IT&#39;值的叶子节点页&quot; data-section-index=&quot;62&quot; style=&quot;border-radius: 4px; margin: 6px 0px; padding: 4px; position: relative; scroll-margin-bottom: 40px; scroll-margin-top: 40px; color: rgb(20, 20, 20); font-family: &amp;quot;Segoe WPC&amp;quot;, &amp;quot;Segoe UI&amp;quot;, &amp;quot;Microsoft YaHei&amp;quot;, sans-serif; font-size: 13px; font-style: normal; font-variant-ligatures: normal; font-variant-caps: normal; font-weight: 400; letter-spacing: normal; orphans: 2; text-align: start; text-indent: 0px; text-transform: none; widows: 2; word-spacing: 0px; -webkit-text-stroke-width: 0px; white-space: normal; background-color: rgb(235, 235, 235); text-decoration-thickness: initial; text-decoration-style: initial; text-decoration-color: initial;&quot;&gt;&lt;div class=&quot;markdown-section-toolbar&quot; style=&quot;animation: auto ease 0s 1 normal none running none !important;&quot;&gt;&lt;div style=&quot;animation: auto ease 0s 1 normal none running none !important; height: 0px; width: 810px;&quot;&gt;&lt;div class=&quot;markdown-section-toolbar-internal&quot; style=&quot;border-radius: 4px; display: flex; gap: 4px; opacity: 0; position: absolute; right: 8px; top: 0px; transform: translateY(-55%); z-index: 303; animation: auto ease 0s 1 normal none running none !important;&quot;&gt;&lt;div class=&quot;markdown-section-toolbar-item light&quot; style=&quot;align-items: center; border-radius: 3px; color: var(--vscode-foreground); cursor: pointer; display: flex; height: 20px; justify-content: center; opacity: 0.3; position: relative; width: 20px; animation: auto ease 0s 1 normal none running none !important;&quot;&gt;&lt;span class=&quot;codicon codicon-reply&quot; style=&quot;animation: auto ease 0s 1 normal none running none !important; display: inline-block; font: 14px / 1 codicon; text-align: center; text-decoration: none; text-rendering: auto; text-transform: none; -webkit-font-smoothing: antialiased; user-select: none;&quot;&gt;&lt;/span&gt;&lt;/div&gt;&lt;div class=&quot;markdown-section-toolbar-item markdown-section-toolbar-copy light&quot; style=&quot;align-items: center; border-radius: 3px; color: var(--vscode-foreground); cursor: pointer; display: flex; height: 20px; justify-content: center; opacity: 0.3; position: relative; width: 20px; animation: auto ease 0s 1 normal none running none !important; pointer-events: auto;&quot;&gt;&lt;span class=&quot;codicon codicon-copy&quot; style=&quot;animation: auto ease 0s 1 normal none running none !important; display: inline-block; font: 14px / 1 codicon; text-align: center; text-decoration: none; text-rendering: auto; text-transform: none; -webkit-font-smoothing: antialiased; user-select: none;&quot;&gt;&lt;/span&gt;&lt;/div&gt;&lt;/div&gt;&lt;/div&gt;&lt;/div&gt;&lt;li style=&quot;padding-left: 24px; padding-top: 2px; padding-bottom: 2px; margin-top: 0px; margin-bottom: 0px;&quot;&gt;&lt;span&gt;最终加载包含&#39;IT&#39;值&lt;/span&gt;&lt;span&gt;的叶子节点页&lt;/span&gt;&lt;/li&gt;&lt;/section&gt;&lt;section id=&quot;markdown-section--63&quot; class=&quot;markdown-section&quot; data-markdown-raw=&quot;- 从叶子节点获取主键值，再去聚集索引查找完整记录&quot; data-section-index=&quot;63&quot; style=&quot;border-radius: 4px; margin: 6px 0px; padding: 4px; position: relative; scroll-margin-bottom: 40px; scroll-margin-top: 40px; color: rgb(20, 20, 20); font-family: &amp;quot;Segoe WPC&amp;quot;, &amp;quot;Segoe UI&amp;quot;, &amp;quot;Microsoft YaHei&amp;quot;, sans-serif; font-size: 13px; font-style: normal; font-variant-ligatures: normal; font-variant-caps: normal; font-weight: 400; letter-spacing: normal; orphans: 2; text-align: start; text-indent: 0px; text-transform: none; widows: 2; word-spacing: 0px; -webkit-text-stroke-width: 0px; white-space: normal; background-color: rgb(235, 235, 235); text-decoration-thickness: initial; text-decoration-style: initial; text-decoration-color: initial;&quot;&gt;&lt;div class=&quot;markdown-section-toolbar&quot; style=&quot;animation: auto ease 0s 1 normal none running none !important;&quot;&gt;&lt;div style=&quot;animation: auto ease 0s 1 normal none running none !important; height: 0px; width: 810px;&quot;&gt;&lt;div class=&quot;markdown-section-toolbar-internal&quot; style=&quot;border-radius: 4px; display: flex; gap: 4px; opacity: 1; position: absolute; right: 8px; top: 0px; transform: translateY(-55%); z-index: 303; animation: auto ease 0s 1 normal none running none !important;&quot;&gt;&lt;div class=&quot;markdown-section-toolbar-item light&quot; style=&quot;align-items: center; border-radius: 3px; color: var(--vscode-foreground); cursor: pointer; display: flex; height: 20px; justify-content: center; opacity: 0.3; position: relative; width: 20px; animation: auto ease 0s 1 normal none running none !important;&quot;&gt;&lt;span class=&quot;codicon codicon-reply&quot; style=&quot;animation: auto ease 0s 1 normal none running none !important; display: inline-block; font: 14px / 1 codicon; text-align: center; text-decoration: none; text-rendering: auto; text-transform: none; -webkit-font-smoothing: antialiased; user-select: none;&quot;&gt;&lt;/span&gt;&lt;/div&gt;&lt;div class=&quot;markdown-section-toolbar-item markdown-section-toolbar-copy light&quot; style=&quot;align-items: center; border-radius: 3px; color: var(--vscode-foreground); cursor: pointer; display: flex; height: 20px; justify-content: center; opacity: 0.3; position: relative; width: 20px; animation: auto ease 0s 1 normal none running none !important; pointer-events: auto;&quot;&gt;&lt;span class=&quot;codicon codicon-copy&quot; style=&quot;animation: auto ease 0s 1 normal none running none !important; display: inline-block; font: 14px / 1 codicon; text-align: center; text-decoration: none; text-rendering: auto; text-transform: none; -webkit-font-smoothing: antialiased; user-select: none;&quot;&gt;&lt;/span&gt;&lt;/div&gt;&lt;/div&gt;&lt;/div&gt;&lt;/div&gt;&lt;li style=&quot;padding-left: 24px; padding-top: 2px; padding-bottom: 2px; margin-top: 0px; margin-bottom: 0px;&quot;&gt;&lt;span&gt;从&lt;/span&gt;&lt;span&gt;叶子节点获取主键值，再去&lt;/span&gt;&lt;span&gt;聚集索引查找完整记录&lt;/span&gt;&lt;/li&gt;&lt;/section&gt;" id="e5YtZzp-TlvkGPMqbxHH-2">
          <mxCell style="text;whiteSpace=wrap;html=1;" vertex="1" parent="1">
            <mxGeometry x="20" y="570" width="560" height="380" as="geometry" />
          </mxCell>
        </UserObject>
        <mxCell id="e5YtZzp-TlvkGPMqbxHH-3" value="&lt;section id=&quot;markdown-section--65&quot; class=&quot;markdown-section&quot; data-markdown-raw=&quot;## 重要概念澄清&quot; data-section-index=&quot;65&quot; style=&quot;border-radius: 4px; margin: 22px 0px 6px; padding: 4px; position: relative; scroll-margin-bottom: 40px; scroll-margin-top: 40px; color: rgb(20, 20, 20); font-family: &amp;quot;Segoe WPC&amp;quot;, &amp;quot;Segoe UI&amp;quot;, &amp;quot;Microsoft YaHei&amp;quot;, sans-serif; font-size: 13px; font-style: normal; font-variant-ligatures: normal; font-variant-caps: normal; font-weight: 400; letter-spacing: normal; orphans: 2; text-align: start; text-indent: 0px; text-transform: none; widows: 2; word-spacing: 0px; -webkit-text-stroke-width: 0px; white-space: normal; background-color: rgb(235, 235, 235); text-decoration-thickness: initial; text-decoration-style: initial; text-decoration-color: initial;&quot;&gt;&lt;h2 style=&quot;font-weight: 600 !important; margin-bottom: 0px; margin-top: 0px;&quot;&gt;&lt;span&gt;重要概念澄清&lt;/span&gt;&lt;/h2&gt;&lt;/section&gt;&lt;section id=&quot;markdown-section--67&quot; class=&quot;markdown-section&quot; data-markdown-raw=&quot;- **加载单位**：InnoDB始终以页(16KB)为单位进行I/O操作，不会只加载单个索引条目&quot; data-section-index=&quot;67&quot; style=&quot;border-radius: 4px; margin: 6px 0px; padding: 4px; position: relative; scroll-margin-bottom: 40px; scroll-margin-top: 40px; color: rgb(20, 20, 20); font-family: &amp;quot;Segoe WPC&amp;quot;, &amp;quot;Segoe UI&amp;quot;, &amp;quot;Microsoft YaHei&amp;quot;, sans-serif; font-size: 13px; font-style: normal; font-variant-ligatures: normal; font-variant-caps: normal; font-weight: 400; letter-spacing: normal; orphans: 2; text-align: start; text-indent: 0px; text-transform: none; widows: 2; word-spacing: 0px; -webkit-text-stroke-width: 0px; white-space: normal; background-color: rgb(235, 235, 235); text-decoration-thickness: initial; text-decoration-style: initial; text-decoration-color: initial;&quot;&gt;&lt;div class=&quot;markdown-section-toolbar&quot; style=&quot;animation: auto ease 0s 1 normal none running none !important;&quot;&gt;&lt;div style=&quot;animation: auto ease 0s 1 normal none running none !important; height: 0px; width: 810px;&quot;&gt;&lt;div class=&quot;markdown-section-toolbar-internal&quot; style=&quot;border-radius: 4px; display: flex; gap: 4px; opacity: 1; position: absolute; right: 8px; top: 0px; transform: translateY(-55%); z-index: 303; animation: auto ease 0s 1 normal none running none !important;&quot;&gt;&lt;div class=&quot;markdown-section-toolbar-item light&quot; style=&quot;align-items: center; border-radius: 3px; color: var(--vscode-foreground); cursor: pointer; display: flex; height: 20px; justify-content: center; opacity: 0.3; position: relative; width: 20px; animation: auto ease 0s 1 normal none running none !important;&quot;&gt;&lt;span class=&quot;codicon codicon-reply&quot; style=&quot;animation: auto ease 0s 1 normal none running none !important; display: inline-block; font: 14px / 1 codicon; text-align: center; text-decoration: none; text-rendering: auto; text-transform: none; -webkit-font-smoothing: antialiased; user-select: none;&quot;&gt;&lt;/span&gt;&lt;/div&gt;&lt;div class=&quot;markdown-section-toolbar-item markdown-section-toolbar-copy light&quot; style=&quot;align-items: center; border-radius: 3px; color: var(--vscode-foreground); cursor: pointer; display: flex; height: 20px; justify-content: center; opacity: 0.3; position: relative; width: 20px; animation: auto ease 0s 1 normal none running none !important; pointer-events: auto;&quot;&gt;&lt;span class=&quot;codicon codicon-copy&quot; style=&quot;animation: auto ease 0s 1 normal none running none !important; display: inline-block; font: 14px / 1 codicon; text-align: center; text-decoration: none; text-rendering: auto; text-transform: none; -webkit-font-smoothing: antialiased; user-select: none;&quot;&gt;&lt;/span&gt;&lt;/div&gt;&lt;/div&gt;&lt;/div&gt;&lt;/div&gt;&lt;li style=&quot;padding-left: 0px; padding-top: 2px; padding-bottom: 2px; margin-top: 0px; margin-bottom: 0px;&quot;&gt;&lt;span class=&quot;markdown-bold-text&quot; style=&quot;font-weight: 600;&quot;&gt;&lt;span&gt;加载单位&lt;/span&gt;&lt;/span&gt;&lt;span&gt;：InnoDB始&lt;/span&gt;&lt;span&gt;终以页(16KB)为单&lt;/span&gt;&lt;span&gt;位进行I/O操作，不&lt;/span&gt;&lt;span&gt;会只加载单个索引条目&lt;/span&gt;&lt;/li&gt;&lt;/section&gt;&lt;section id=&quot;markdown-section--68&quot; class=&quot;markdown-section&quot; data-markdown-raw=&quot;- **随机访问**：B+树的遍历可能导致随机I/O，因为不同层级的节点页在物理上可能不连续&quot; data-section-index=&quot;68&quot; style=&quot;border-radius: 4px; margin: 6px 0px; padding: 4px; position: relative; scroll-margin-bottom: 40px; scroll-margin-top: 40px; color: rgb(20, 20, 20); font-family: &amp;quot;Segoe WPC&amp;quot;, &amp;quot;Segoe UI&amp;quot;, &amp;quot;Microsoft YaHei&amp;quot;, sans-serif; font-size: 13px; font-style: normal; font-variant-ligatures: normal; font-variant-caps: normal; font-weight: 400; letter-spacing: normal; orphans: 2; text-align: start; text-indent: 0px; text-transform: none; widows: 2; word-spacing: 0px; -webkit-text-stroke-width: 0px; white-space: normal; background-color: rgb(235, 235, 235); text-decoration-thickness: initial; text-decoration-style: initial; text-decoration-color: initial;&quot;&gt;&lt;div class=&quot;markdown-section-toolbar&quot; style=&quot;animation: auto ease 0s 1 normal none running none !important;&quot;&gt;&lt;div style=&quot;animation: auto ease 0s 1 normal none running none !important; height: 0px; width: 810px;&quot;&gt;&lt;div class=&quot;markdown-section-toolbar-internal&quot; style=&quot;border-radius: 4px; display: flex; gap: 4px; opacity: 0; position: absolute; right: 8px; top: 0px; transform: translateY(-55%); z-index: 303; animation: auto ease 0s 1 normal none running none !important;&quot;&gt;&lt;div class=&quot;markdown-section-toolbar-item light&quot; style=&quot;align-items: center; border-radius: 3px; color: var(--vscode-foreground); cursor: pointer; display: flex; height: 20px; justify-content: center; opacity: 0.3; position: relative; width: 20px; animation: auto ease 0s 1 normal none running none !important;&quot;&gt;&lt;span class=&quot;codicon codicon-reply&quot; style=&quot;animation: auto ease 0s 1 normal none running none !important; display: inline-block; font: 14px / 1 codicon; text-align: center; text-decoration: none; text-rendering: auto; text-transform: none; -webkit-font-smoothing: antialiased; user-select: none;&quot;&gt;&lt;/span&gt;&lt;/div&gt;&lt;div class=&quot;markdown-section-toolbar-item markdown-section-toolbar-copy light&quot; style=&quot;align-items: center; border-radius: 3px; color: var(--vscode-foreground); cursor: pointer; display: flex; height: 20px; justify-content: center; opacity: 0.3; position: relative; width: 20px; animation: auto ease 0s 1 normal none running none !important; pointer-events: auto;&quot;&gt;&lt;span class=&quot;codicon codicon-copy&quot; style=&quot;animation: auto ease 0s 1 normal none running none !important; display: inline-block; font: 14px / 1 codicon; text-align: center; text-decoration: none; text-rendering: auto; text-transform: none; -webkit-font-smoothing: antialiased; user-select: none;&quot;&gt;&lt;/span&gt;&lt;/div&gt;&lt;/div&gt;&lt;/div&gt;&lt;/div&gt;&lt;li style=&quot;padding-left: 0px; padding-top: 2px; padding-bottom: 2px; margin-top: 0px; margin-bottom: 0px;&quot;&gt;&lt;span class=&quot;markdown-bold-text&quot; style=&quot;font-weight: 600;&quot;&gt;&lt;span&gt;随&lt;/span&gt;&lt;span&gt;机访问&lt;/span&gt;&lt;/span&gt;&lt;span&gt;：B+树的&lt;/span&gt;&lt;span&gt;遍历可能导致随机I&lt;/span&gt;&lt;span&gt;/O，因为不同层级的节点页&lt;/span&gt;&lt;span&gt;在物理上可能不连续&lt;/span&gt;&lt;/li&gt;&lt;/section&gt;&lt;section id=&quot;markdown-section--69&quot; class=&quot;markdown-section&quot; data-markdown-raw=&quot;- **预读机制**：系统可能会预读相邻页面，减少I/O次数&quot; data-section-index=&quot;69&quot; style=&quot;border-radius: 4px; margin: 6px 0px; padding: 4px; position: relative; scroll-margin-bottom: 40px; scroll-margin-top: 40px; color: rgb(20, 20, 20); font-family: &amp;quot;Segoe WPC&amp;quot;, &amp;quot;Segoe UI&amp;quot;, &amp;quot;Microsoft YaHei&amp;quot;, sans-serif; font-size: 13px; font-style: normal; font-variant-ligatures: normal; font-variant-caps: normal; font-weight: 400; letter-spacing: normal; orphans: 2; text-align: start; text-indent: 0px; text-transform: none; widows: 2; word-spacing: 0px; -webkit-text-stroke-width: 0px; white-space: normal; background-color: rgb(235, 235, 235); text-decoration-thickness: initial; text-decoration-style: initial; text-decoration-color: initial;&quot;&gt;&lt;div class=&quot;markdown-section-toolbar&quot; style=&quot;animation: auto ease 0s 1 normal none running none !important;&quot;&gt;&lt;div style=&quot;animation: auto ease 0s 1 normal none running none !important; height: 0px; width: 810px;&quot;&gt;&lt;div class=&quot;markdown-section-toolbar-internal&quot; style=&quot;border-radius: 4px; display: flex; gap: 4px; opacity: 0; position: absolute; right: 8px; top: 0px; transform: translateY(-55%); z-index: 303; animation: auto ease 0s 1 normal none running none !important;&quot;&gt;&lt;div class=&quot;markdown-section-toolbar-item light&quot; style=&quot;align-items: center; border-radius: 3px; color: var(--vscode-foreground); cursor: pointer; display: flex; height: 20px; justify-content: center; opacity: 0.3; position: relative; width: 20px; animation: auto ease 0s 1 normal none running none !important;&quot;&gt;&lt;span class=&quot;codicon codicon-reply&quot; style=&quot;animation: auto ease 0s 1 normal none running none !important; display: inline-block; font: 14px / 1 codicon; text-align: center; text-decoration: none; text-rendering: auto; text-transform: none; -webkit-font-smoothing: antialiased; user-select: none;&quot;&gt;&lt;/span&gt;&lt;/div&gt;&lt;div class=&quot;markdown-section-toolbar-item markdown-section-toolbar-copy light&quot; style=&quot;align-items: center; border-radius: 3px; color: var(--vscode-foreground); cursor: pointer; display: flex; height: 20px; justify-content: center; opacity: 0.3; position: relative; width: 20px; animation: auto ease 0s 1 normal none running none !important; pointer-events: auto;&quot;&gt;&lt;span class=&quot;codicon codicon-copy&quot; style=&quot;animation: auto ease 0s 1 normal none running none !important; display: inline-block; font: 14px / 1 codicon; text-align: center; text-decoration: none; text-rendering: auto; text-transform: none; -webkit-font-smoothing: antialiased; user-select: none;&quot;&gt;&lt;/span&gt;&lt;/div&gt;&lt;/div&gt;&lt;/div&gt;&lt;/div&gt;&lt;li style=&quot;padding-left: 0px; padding-top: 2px; padding-bottom: 2px; margin-top: 0px; margin-bottom: 0px;&quot;&gt;&lt;span class=&quot;markdown-bold-text&quot; style=&quot;font-weight: 600;&quot;&gt;&lt;span&gt;预读机制&lt;/span&gt;&lt;/span&gt;&lt;span&gt;：系统可能会预读相&lt;/span&gt;&lt;span&gt;邻页面，减少I/O次数&lt;/span&gt;&lt;/li&gt;&lt;/section&gt;&lt;section id=&quot;markdown-section--71&quot; class=&quot;markdown-section&quot; data-markdown-raw=&quot;总结来说，当MySQL访问索引时，确实是从表空间中加载相应索引段的页面。这个过程是以页为单位进行的，每个页面对应B+树结构中的一个节点。&quot; data-section-index=&quot;71&quot; style=&quot;border-radius: 4px; margin: 6px 0px; padding: 4px; position: relative; scroll-margin-bottom: 40px; scroll-margin-top: 40px; color: rgb(20, 20, 20); font-family: &amp;quot;Segoe WPC&amp;quot;, &amp;quot;Segoe UI&amp;quot;, &amp;quot;Microsoft YaHei&amp;quot;, sans-serif; font-size: 13px; font-style: normal; font-variant-ligatures: normal; font-variant-caps: normal; font-weight: 400; letter-spacing: normal; orphans: 2; text-align: start; text-indent: 0px; text-transform: none; widows: 2; word-spacing: 0px; -webkit-text-stroke-width: 0px; white-space: normal; background-color: rgb(235, 235, 235); text-decoration-thickness: initial; text-decoration-style: initial; text-decoration-color: initial;&quot;&gt;&lt;div class=&quot;markdown-section-toolbar&quot; style=&quot;animation: auto ease 0s 1 normal none running none !important;&quot;&gt;&lt;div style=&quot;animation: auto ease 0s 1 normal none running none !important; height: 0px; width: 810px;&quot;&gt;&lt;div class=&quot;markdown-section-toolbar-internal&quot; style=&quot;border-radius: 4px; display: flex; gap: 4px; opacity: 0; position: absolute; right: 8px; top: 0px; transform: translateY(-55%); z-index: 303; animation: auto ease 0s 1 normal none running none !important;&quot;&gt;&lt;div class=&quot;markdown-section-toolbar-item light&quot; style=&quot;align-items: center; border-radius: 3px; color: var(--vscode-foreground); cursor: pointer; display: flex; height: 20px; justify-content: center; opacity: 0.3; position: relative; width: 20px; animation: auto ease 0s 1 normal none running none !important;&quot;&gt;&lt;span class=&quot;codicon codicon-reply&quot; style=&quot;animation: auto ease 0s 1 normal none running none !important; display: inline-block; font: 14px / 1 codicon; text-align: center; text-decoration: none; text-rendering: auto; text-transform: none; -webkit-font-smoothing: antialiased; user-select: none;&quot;&gt;&lt;/span&gt;&lt;/div&gt;&lt;div class=&quot;markdown-section-toolbar-item markdown-section-toolbar-copy light&quot; style=&quot;align-items: center; border-radius: 3px; color: var(--vscode-foreground); cursor: pointer; display: flex; height: 20px; justify-content: center; opacity: 0.3; position: relative; width: 20px; animation: auto ease 0s 1 normal none running none !important; pointer-events: auto;&quot;&gt;&lt;span class=&quot;codicon codicon-copy&quot; style=&quot;animation: auto ease 0s 1 normal none running none !important; display: inline-block; font: 14px / 1 codicon; text-align: center; text-decoration: none; text-rendering: auto; text-transform: none; -webkit-font-smoothing: antialiased; user-select: none;&quot;&gt;&lt;/span&gt;&lt;/div&gt;&lt;/div&gt;&lt;/div&gt;&lt;/div&gt;&lt;span style=&quot;margin-top: 0px;&quot;&gt;总结来说，当MySQL访问索引时&lt;/span&gt;&lt;span&gt;，确实是从表空间中加载相应索&lt;/span&gt;&lt;span&gt;引段的页面。这个过程是&lt;/span&gt;&lt;span&gt;以页为单位进行的，每&lt;/span&gt;&lt;span&gt;个页面对应B+树结构中的一个&lt;/span&gt;&lt;span&gt;节点&lt;/span&gt;&lt;span style=&quot;margin-bottom: 0px;&quot;&gt;。&lt;/span&gt;&lt;/section&gt;" style="text;whiteSpace=wrap;html=1;" vertex="1" parent="1">
          <mxGeometry x="20" y="950" width="560" height="230" as="geometry" />
        </mxCell>
      </root>
    </mxGraphModel>
  </diagram>
</mxfile>
